<svg width="508" height="505" viewBox="0 0 508 505" fill="none" xmlns="http://www.w3.org/2000/svg">
<path d="M494.174 50.1896H374.171V175.284H494.174V50.1896Z" fill="#E0E0E0"/>
<path d="M486.047 50.1896H366.045V175.284H486.047V50.1896Z" fill="#FAFAFA"/>
<path d="M486.081 175.318H366V50.1446H486.081V175.318ZM366.078 175.239H486.002V50.2233H366.078V175.239Z" fill="#E0E0E0"/>
<path d="M469.917 67.0052H382.175V158.469H469.917V67.0052Z" fill="#FAFAFA"/>
<path d="M382.175 159.064C381.556 159.988 380.827 160.833 380.005 161.582C378.611 163.066 376.633 165.067 374.385 167.202C372.137 169.338 370.147 171.316 368.652 172.688C367.896 173.49 367.047 174.2 366.123 174.801C366.741 173.887 367.462 173.046 368.27 172.294C369.675 170.822 371.642 168.81 373.89 166.674C376.139 164.538 378.139 162.56 379.634 161.178C380.395 160.376 381.248 159.666 382.175 159.064Z" fill="#E0E0E0"/>
<path d="M469.917 158.84C470.833 159.464 471.674 160.192 472.424 161.009C473.908 162.414 475.909 164.381 478.044 166.629C480.18 168.877 482.158 170.867 483.541 172.362C484.343 173.119 485.049 173.972 485.643 174.902C484.73 174.277 483.89 173.553 483.136 172.744C481.664 171.339 479.652 169.372 477.516 167.124C475.38 164.876 473.402 162.875 472.031 161.38C471.217 160.63 470.507 159.776 469.917 158.84Z" fill="#E0E0E0"/>
<path d="M469.67 67.2413C470.296 66.3229 471.024 65.4782 471.84 64.7234C473.233 63.2509 475.212 61.2501 477.46 59.1032C479.708 56.9563 481.697 55.0005 483.192 53.6179C483.956 52.8186 484.808 52.1096 485.733 51.5047C485.115 52.4224 484.39 53.2638 483.575 54.0113C482.17 55.495 480.202 57.4958 477.954 59.6315C475.706 61.7672 473.705 63.7568 472.211 65.1281C471.458 65.9384 470.604 66.6487 469.67 67.2413Z" fill="#E0E0E0"/>
<path d="M381.939 67.4661C381.017 66.8493 380.171 66.1248 379.421 65.3079C377.937 63.9029 375.936 61.9358 373.8 59.6877C371.665 57.4396 369.687 55.4613 368.304 53.9663C367.505 53.2063 366.799 52.3535 366.202 51.426C367.118 52.0465 367.959 52.7707 368.709 53.5842C370.181 54.978 372.193 56.9563 374.329 59.2044C376.464 61.4525 378.443 63.4533 379.825 64.9482C380.624 65.7033 381.334 66.5482 381.939 67.4661Z" fill="#E0E0E0"/>
<path d="M469.67 158.457C469.67 158.457 469.67 158.3 469.67 158.019C469.67 157.738 469.67 157.288 469.67 156.738C469.67 155.614 469.67 153.939 469.67 151.803C469.67 147.464 469.67 141.17 469.58 133.166C469.58 117.149 469.479 94.3195 469.412 67.0053L469.749 67.3425H382.265L382.647 66.9603C382.647 100.524 382.647 131.93 382.647 158.412L382.31 158.086L445.661 158.255L463.454 158.345H468.164H469.378H469.805C469.678 158.356 469.55 158.356 469.423 158.345H468.243H463.6L445.874 158.435L382.31 158.604H381.972V158.266C381.972 131.784 381.972 100.378 381.916 66.8142V66.4208H382.321H469.805H470.142V66.758C470.075 94.1621 470.019 117.059 469.974 133.133C469.974 141.102 469.906 147.386 469.884 151.691C469.884 153.804 469.884 155.434 469.884 156.569C469.884 157.097 469.884 157.502 469.884 157.805C469.844 158.032 469.772 158.251 469.67 158.457Z" fill="#E0E0E0"/>
<path d="M428.609 102.885C427.029 100.544 424.848 98.6713 422.295 97.4636C419.742 96.2559 416.911 95.7575 414.099 96.0208C411.287 96.2841 408.597 97.2992 406.313 98.9598C404.028 100.62 402.233 102.865 401.115 105.459C400.241 107.669 399.81 110.029 399.849 112.405C399.888 114.781 400.394 117.127 401.34 119.307C403.271 123.666 406.416 127.377 410.399 129.997C420.662 136.988 435.533 136.673 445.076 128.726C448.75 125.867 451.25 121.76 452.101 117.183C452.493 114.525 452.131 111.811 451.057 109.348C449.984 106.886 448.241 104.774 446.027 103.252C443.814 101.73 441.218 100.86 438.534 100.739C435.851 100.619 433.187 101.253 430.846 102.57" fill="#E0E0E0"/>
<path d="M428.654 102.873C428.315 101.629 427.547 100.545 426.485 99.8125C425.424 99.0801 424.137 98.7469 422.854 98.8719L426.282 102.952C425.342 103.087 424.456 103.47 423.715 104.063C422.973 104.656 422.404 105.437 422.067 106.324C421.898 106.74 421.853 107.325 422.247 107.538C422.39 107.582 422.54 107.596 422.689 107.58C422.837 107.565 422.981 107.52 423.112 107.448L427.282 105.717C427.57 108.046 428.423 110.269 429.767 112.192C430.723 110.15 431.258 107.937 431.34 105.684L435.949 107.718C435.579 106.402 434.823 105.228 433.779 104.346C435.145 104.08 436.451 103.57 437.635 102.84C437.995 102.615 438.388 102.233 438.219 101.851C438.051 101.468 437.725 101.468 437.399 101.446C434.356 101.151 431.295 101.786 428.62 103.267" fill="#EBEBEB"/>
<path d="M428.35 104.593C429.071 99.9307 428.686 95.164 427.226 90.6776C428.35 90.4303 429.677 90.2729 430.385 91.1384C430.747 91.6896 430.91 92.348 430.846 93.0044C430.899 97.4017 430.061 101.764 428.384 105.83" fill="#EBEBEB"/>
<path d="M405.971 121.285C405.696 121.083 405.453 120.841 405.251 120.566C404.657 119.847 404.14 119.067 403.711 118.239C402.248 115.491 401.73 112.337 402.238 109.266C402.746 106.194 404.251 103.375 406.521 101.244C407.207 100.598 407.961 100.029 408.77 99.5463C409.045 99.3456 409.353 99.1935 409.68 99.0967C408.673 99.8351 407.716 100.639 406.814 101.502C404.687 103.636 403.28 106.381 402.788 109.353C402.296 112.325 402.745 115.377 404.071 118.082C404.635 119.189 405.27 120.259 405.971 121.285Z" fill="white"/>
<path d="M410.59 124.792C410.59 124.916 409.815 124.792 409.084 124.23C408.354 123.668 407.96 123.106 408.073 122.994C408.185 122.881 408.702 123.342 409.376 123.826C410.051 124.309 410.647 124.657 410.59 124.792Z" fill="white"/>
<path d="M223.269 13.7481H56.1347V187.975H223.269V13.7481Z" fill="#E0E0E0"/>
<path d="M211.95 13.7481H44.8156V187.975H211.95V13.7481Z" fill="#FAFAFA"/>
<path d="M212.006 188.02H44.7594V13.6919H212.006V188.02ZM44.8943 187.919H211.893V13.793H44.8943V187.919Z" fill="#E0E0E0"/>
<path d="M189.48 37.1619H67.2852V164.538H189.48V37.1619Z" fill="#FAFAFA"/>
<path d="M67.2852 165.393C66.4162 166.671 65.4056 167.848 64.2728 168.9C62.3169 170.957 59.5743 173.744 56.5056 176.768C53.437 179.792 50.6044 182.489 48.5137 184.4C46.423 186.311 45.1416 187.458 44.9842 187.345C45.8467 186.068 46.8538 184.895 47.9854 183.85C49.9412 181.793 52.6839 179.005 55.775 175.981C58.8661 172.958 61.6875 170.237 63.767 168.315C65.8464 166.393 67.184 165.28 67.2852 165.393Z" fill="#E0E0E0"/>
<path d="M189.48 165.123C190.76 165.994 191.937 167.009 192.987 168.147C195.044 170.091 197.832 172.834 200.855 175.914C203.879 178.994 206.577 181.804 208.499 183.894C209.615 184.949 210.6 186.134 211.432 187.424C210.158 186.563 208.989 185.555 207.948 184.423C205.88 182.478 203.092 179.724 200.08 176.644C197.067 173.565 194.336 170.721 192.425 168.641C190.514 166.562 189.368 165.179 189.48 165.123Z" fill="#E0E0E0"/>
<path d="M189.143 37.5103C190.003 36.2287 191.011 35.0517 192.144 34.0033C194.088 31.9351 196.831 29.1475 199.911 26.135C202.991 23.1226 205.812 20.4137 207.892 18.4915C208.946 17.3754 210.131 16.3904 211.421 15.5578C211.534 15.6589 210.376 16.9853 208.42 19.0423C206.464 21.0993 203.722 23.8982 200.642 26.9106C197.562 29.9231 194.729 32.6545 192.638 34.5654C190.548 36.4762 189.244 37.6228 189.143 37.5103Z" fill="#E0E0E0"/>
<path d="M66.948 37.8138C65.6626 36.9538 64.4851 35.9424 63.441 34.8014C61.384 32.8456 58.5964 30.1141 55.5727 27.0343C52.549 23.9544 49.8401 21.133 47.9292 19.0536C46.815 17.9943 45.8268 16.81 44.9842 15.5241C45.0966 15.4117 46.423 16.5694 48.48 18.514C50.537 20.4586 53.3358 23.2238 56.3483 26.3036C59.3607 29.3835 62.0809 32.2161 64.003 34.3068C65.119 35.3561 66.1075 36.5332 66.948 37.8138Z" fill="#E0E0E0"/>
<path d="M189.143 164.55C189.143 164.55 189.143 164.325 189.143 163.931C189.143 163.538 189.143 162.909 189.143 162.155C189.143 160.544 189.143 158.251 189.143 155.276C189.143 149.24 189.075 140.461 189.019 129.311C189.019 106.999 188.873 75.222 188.783 37.1394L189.244 37.6115L67.3976 37.679L67.9371 37.1394C67.9371 83.8996 67.8809 127.636 67.8585 164.527L67.3976 164.055L155.635 164.302L180.42 164.415L186.973 164.471H188.671C188.865 164.457 189.061 164.457 189.255 164.471C189.079 164.482 188.903 164.482 188.727 164.471H187.074L180.611 164.527L155.882 164.651L67.3526 164.887H66.8918V164.426C66.8918 127.535 66.8356 83.7984 66.8131 37.0383V36.4987H67.3639L189.21 36.5662H189.694V37.0383C189.604 75.2557 189.514 107.111 189.457 129.491C189.457 140.596 189.368 149.341 189.334 155.344C189.334 158.289 189.334 160.559 189.278 162.088C189.278 162.819 189.278 163.392 189.278 163.808C189.261 164.059 189.215 164.308 189.143 164.55Z" fill="#E0E0E0"/>
<path d="M127.86 61.149C127.444 62.554 120.284 73.8394 109.965 77.6724C99.6464 81.5054 91.9804 85.7543 94.8355 90.8012C97.6906 95.8482 110.381 93.1055 110.381 93.1055C110.381 93.1055 84.6517 121.072 108.875 137.056C138.403 156.535 169.27 86.7772 169.27 86.7772L127.86 61.149Z" fill="#EBEBEB"/>
<path d="M164.403 96.354C164.324 96.4889 154.59 90.7338 142.664 83.3938C130.737 76.0538 121.127 70.0964 121.206 69.9053C121.284 69.7142 131.018 75.5255 142.956 82.8655C154.893 90.2055 164.481 96.2191 164.403 96.354Z" fill="#E0E0E0"/>
<path d="M159.839 104.717C159.749 104.852 149.239 98.6808 136.346 90.9361C123.454 83.1915 113.067 76.8069 113.146 76.672C113.225 76.5371 123.735 82.7081 136.639 90.4528C149.543 98.1974 159.918 104.582 159.839 104.717Z" fill="#E0E0E0"/>
<path d="M154.32 112.641C154.23 112.776 142.427 105.83 127.939 97.1296C113.45 88.4295 101.771 81.2581 101.85 81.1345C101.928 81.0108 113.742 87.9462 128.231 96.6463C142.72 105.346 154.399 112.518 154.32 112.641Z" fill="#E0E0E0"/>
<path d="M147.429 122.409C147.34 122.544 138.19 116.958 126.983 109.944C115.776 102.93 106.75 97.1296 106.84 97.006C106.93 96.8823 116.069 102.458 127.287 109.472C138.505 116.486 147.508 122.319 147.429 122.409Z" fill="#E0E0E0"/>
<path d="M139.314 131.93C139.235 132.054 130.715 126.557 120.284 119.644C109.853 112.731 101.479 107.021 101.557 106.898C101.636 106.774 110.167 112.27 120.599 119.183C131.03 126.096 139.415 131.795 139.314 131.93Z" fill="#E0E0E0"/>
<path d="M128.995 138.494C128.543 138.341 128.109 138.138 127.703 137.887C126.893 137.472 125.724 136.831 124.33 136.033C121.475 134.425 117.586 132.11 113.371 129.412C109.156 126.714 105.435 124.14 102.782 122.218C101.456 121.252 100.399 120.465 99.6801 119.903C99.2713 119.64 98.8942 119.33 98.5561 118.981C98.9846 119.187 99.3914 119.435 99.77 119.723L102.985 121.892C105.694 123.736 109.437 126.254 113.641 128.94C117.845 131.626 121.7 133.998 124.499 135.684L127.871 137.708C128.272 137.93 128.649 138.194 128.995 138.494Z" fill="#E0E0E0"/>
<path d="M104.772 93.735C102.726 93.2198 100.791 92.3361 99.0619 91.1272C97.2387 90.0679 95.6206 88.6897 94.2847 87.0582C94.3971 86.9345 96.4654 88.8229 99.3654 90.6551C102.265 92.4873 104.839 93.5889 104.772 93.735Z" fill="#E0E0E0"/>
<path d="M167.348 85.3159C167.245 85.5302 167.12 85.7336 166.977 85.9229L165.853 87.5865C164.852 89.0365 163.368 91.1047 161.514 93.6563C157.804 98.737 152.521 105.684 146.598 113.215C140.674 120.746 135.031 127.4 130.861 132.166C128.804 134.549 127.129 136.46 125.949 137.786L124.611 139.27C124.462 139.457 124.292 139.626 124.106 139.776C124.229 139.571 124.372 139.379 124.533 139.203L125.814 137.64L130.603 131.919C134.638 127.097 140.168 120.386 146.137 112.877C152.106 105.369 157.377 98.456 161.177 93.4315L165.673 87.4741L166.909 85.8667C167.041 85.6724 167.188 85.4883 167.348 85.3159Z" fill="#E0E0E0"/>
<path d="M158.973 79.3585C159.097 79.4597 148.857 92.847 136.065 109.258C123.274 125.669 112.831 138.91 112.719 138.809C112.607 138.708 122.835 125.321 135.627 108.91C148.419 92.4986 158.85 79.2686 158.973 79.3585Z" fill="#E0E0E0"/>
<path d="M147.295 72.7379C147.215 72.9722 147.106 73.1951 146.969 73.4011L145.912 75.2557C144.99 76.8519 143.596 79.1449 141.798 81.9101C138.212 87.5303 132.884 94.8928 126.59 102.784C120.295 110.674 114.371 117.61 110.089 122.634L104.986 128.558L103.569 130.154C103.418 130.349 103.244 130.527 103.052 130.682C103.18 130.471 103.327 130.272 103.491 130.087L104.817 128.423L109.785 122.387C114 117.295 119.902 110.326 126.151 102.435C132.401 94.5443 137.808 87.1818 141.461 81.6965C143.304 78.9538 144.743 76.7057 145.732 75.1433L146.856 73.3449C146.987 73.1318 147.133 72.9289 147.295 72.7379Z" fill="#E0E0E0"/>
<path d="M137.718 67.2525C137.841 67.3425 129.096 78.9201 118.193 93.1055C107.29 107.291 98.3425 118.711 98.2189 118.621C98.0952 118.531 106.84 106.954 117.743 92.7683C128.647 78.5829 137.594 67.1626 137.718 67.2525Z" fill="#E0E0E0"/>
<path d="M130.513 62.554C130.241 63.0912 129.933 63.6095 129.591 64.1052C129.276 64.5998 128.894 65.2293 128.399 65.8475C127.905 66.4657 127.388 67.2863 126.713 68.0956C125.208 70 123.586 71.8094 121.857 73.5135C119.74 75.5903 117.487 77.5242 115.113 79.3023C112.705 81.0463 110.186 82.6309 107.571 84.0457C105.428 85.1845 103.217 86.1906 100.95 87.0582C99.9949 87.4628 99.0956 87.7326 98.32 88.0024C97.5444 88.2721 96.8588 88.4632 96.2968 88.6094C95.7262 88.8012 95.1392 88.9405 94.5432 89.0253C95.088 88.7749 95.6518 88.5682 96.2293 88.407C96.7801 88.2272 97.4545 88.0024 98.2076 87.7101C98.9607 87.4179 99.86 87.1144 100.804 86.6985C103.032 85.7785 105.208 84.7391 107.324 83.5849C109.909 82.162 112.401 80.5777 114.787 78.8414C117.151 77.0824 119.403 75.1791 121.532 73.1425C123.265 71.4691 124.904 69.7016 126.444 67.8483C127.129 67.0727 127.669 66.3196 128.186 65.6789C128.703 65.0382 129.108 64.4761 129.445 64.004C129.76 63.4923 130.118 63.0073 130.513 62.554Z" fill="#E0E0E0"/>
<path d="M98.9045 399.711C98.4212 399.823 102.041 418.055 102.041 418.055H111.336L115.439 400.43C110.11 398.611 104.371 398.361 98.9045 399.711Z" fill="#E0E0E0"/>
<path d="M93.3068 502.336C93.3068 502.336 79.6384 464.118 81.5493 453.676C83.4602 443.234 87.5742 441.098 90.8451 437.816C94.1161 434.534 96.87 431.802 97.6906 428.52C98.5111 425.238 97.6906 412.109 97.6906 412.109C97.6906 412.109 95.2289 408.287 96.0495 406.916C96.87 405.545 117.103 406.916 117.103 406.916C116.989 408.587 116.421 410.196 115.462 411.569C115.462 411.569 114.911 426.879 115.731 428.52C116.552 430.161 129.13 444.11 131.041 451.214C132.952 458.318 123.487 502.336 123.487 502.336H93.3068Z" fill="#F5F5F5"/>
<path d="M93.3068 502.336C93.4865 502.326 93.6666 502.326 93.8464 502.336H95.3863H101.321L123.487 502.235L123.308 502.381C124.432 496.761 125.735 490.511 127.017 483.564C128.298 476.618 129.625 469.053 130.558 460.937C130.771 458.903 130.973 456.835 131.018 454.744C131.068 453.706 131.004 452.666 130.827 451.642C130.555 450.62 130.178 449.63 129.703 448.685C127.611 444.792 125.17 441.098 122.408 437.647C121.026 435.849 119.598 434.062 118.148 432.252C117.418 431.353 116.687 430.453 115.979 429.509C115.792 429.264 115.62 429.009 115.462 428.745C115.345 428.441 115.266 428.124 115.226 427.801C115.136 427.205 115.102 426.62 115.068 426.025C114.866 421.292 115.001 416.493 115.147 411.637V411.558V411.48C115.379 411.118 115.589 410.742 115.776 410.355C116.314 409.305 116.642 408.159 116.743 406.983L117.013 407.276C112.393 406.983 107.841 406.759 103.378 406.68C101.187 406.6 98.9923 406.687 96.8138 406.938C96.6147 406.975 96.4217 407.039 96.2406 407.129C96.1357 407.314 96.0887 407.525 96.1057 407.736C96.1399 408.244 96.2497 408.745 96.4317 409.22C96.8168 410.2 97.2948 411.141 97.8592 412.03V412.098V412.165C98.0615 415.661 98.1964 419.1 98.2076 422.484C98.2342 424.168 98.1704 425.853 98.0166 427.531C97.8097 429.207 97.1834 430.803 96.1956 432.173C95.2582 433.491 94.217 434.731 93.082 435.882C91.958 437.007 90.8339 438.131 89.7099 439.198C88.5658 440.195 87.4881 441.265 86.4839 442.402C85.5926 443.51 84.8378 444.722 84.2358 446.01C83.0364 448.574 82.2076 451.295 81.7741 454.092C81.6338 455.426 81.6338 456.771 81.7741 458.105C81.8641 459.431 82.0439 460.724 82.235 462.005C83.0443 467.075 84.2133 471.706 85.3036 475.898C87.5517 484.261 89.6649 490.848 91.1262 495.367C91.8568 497.615 92.4301 499.346 92.8235 500.549C93.0146 501.122 93.1607 501.56 93.2618 501.886C93.363 502.212 93.3967 502.347 93.3967 502.347L93.2169 501.898C93.1045 501.583 92.9359 501.144 92.7335 500.582C92.3064 499.458 91.6994 497.682 90.9351 495.434C89.4176 490.938 87.2482 484.351 84.9552 475.988C83.6681 471.407 82.6176 466.762 81.8078 462.073C81.6168 460.791 81.4257 459.487 81.3245 458.139C81.1788 456.771 81.1788 455.392 81.3245 454.025C81.747 451.177 82.58 448.405 83.7974 445.797C84.4577 444.437 85.2846 443.164 86.2591 442.008C87.281 440.855 88.3734 439.767 89.53 438.749C90.6541 437.715 91.7781 436.591 92.9022 435.455C94.0196 434.326 95.0387 433.104 95.9483 431.802C96.8919 430.505 97.4878 428.988 97.6793 427.396C97.8247 425.74 97.8847 424.078 97.8592 422.416C97.8592 419.044 97.6906 415.672 97.4883 412.131V412.266C96.9021 411.343 96.4088 410.364 96.0158 409.344C95.7989 408.81 95.6735 408.244 95.6448 407.669C95.6219 407.332 95.7086 406.997 95.8921 406.714C96.1502 406.487 96.4722 406.345 96.8138 406.309C99.0286 406.04 101.261 405.949 103.491 406.039C107.987 406.107 112.483 406.331 117.159 406.624H117.451V406.893C117.367 408.177 117.014 409.429 116.417 410.569C116.217 410.955 115.995 411.331 115.754 411.693L115.81 411.547C115.664 416.392 115.529 421.191 115.731 425.878C115.751 426.454 115.8 427.028 115.878 427.598C115.909 427.863 115.969 428.123 116.057 428.374C116.2 428.609 116.357 428.834 116.53 429.048C117.215 429.981 117.957 430.88 118.676 431.78C120.126 433.589 121.554 435.377 122.937 437.186C125.722 440.669 128.179 444.401 130.277 448.337C130.754 449.319 131.13 450.347 131.401 451.406C131.58 452.475 131.645 453.56 131.592 454.643C131.592 456.767 131.344 458.847 131.12 460.881C130.164 469.03 128.782 476.618 127.5 483.542C126.219 490.466 124.904 496.783 123.712 502.347V502.505H123.555L101.299 502.415H95.3975H93.8801L93.3068 502.336Z" fill="#E0E0E0"/>
<path d="M120.868 498.379C124.336 485.586 126.635 472.505 127.736 459.296C127.849 457.79 127.849 456.048 126.713 455.047C125.32 453.833 123.184 454.485 121.419 455.047C116.231 456.688 110.712 456.982 105.379 455.902C100.197 454.834 95.0603 452.462 89.8335 453.316C89.18 453.381 88.5457 453.575 87.9671 453.885C87.3884 454.196 86.8767 454.617 86.4614 455.126C85.6071 456.385 85.8094 458.049 86.0567 459.544C88.1025 472.391 92.2952 487.173 95.701 498.379H120.868Z" fill="#E0E0E0"/>
<path d="M124.308 456.621C124.028 457.037 123.696 457.415 123.319 457.745C122.347 458.64 121.306 459.455 120.205 460.184C116.57 462.679 112.391 464.267 108.016 464.817C103.642 465.366 99.1995 464.861 95.0603 463.343C93.8164 462.891 92.6099 462.343 91.4521 461.702C91.0122 461.488 90.6007 461.219 90.2269 460.904C90.2831 460.803 92.0479 461.904 95.1952 462.949C99.2842 464.331 103.633 464.769 107.915 464.232C112.198 463.694 116.303 462.195 119.924 459.847C122.79 458.049 124.229 456.542 124.308 456.621Z" fill="white"/>
<path d="M352.298 249.033C348.798 249.422 345.265 249.422 341.765 249.033C345.265 248.643 348.798 248.643 352.298 249.033Z" fill="#FAFAFA"/>
<path d="M508 503.775C508 503.943 394.281 504.078 254.034 504.078C113.787 504.078 0 503.943 0 503.775C0 503.606 113.686 503.46 253.966 503.46C394.247 503.46 508 503.617 508 503.775Z" fill="#263238"/>
<path d="M406.364 440.322C411.838 436.388 417.413 432.398 423.753 430.094C430.093 427.789 437.421 427.34 443.424 430.431C448.448 433.016 452.068 437.85 454.147 443.11C456.713 449.642 457.146 456.819 455.384 463.613C454.428 467.277 452.528 471.065 449.044 472.549C445.559 474.032 441.547 472.751 438.085 471.2C426.723 466.095 416.881 458.128 409.523 448.078C410.263 447.487 411.161 447.127 412.104 447.043C413.048 446.959 413.995 447.155 414.828 447.606C416.474 448.535 417.971 449.705 419.268 451.08C423.663 455.062 428.965 457.909 434.712 459.375C438.961 460.499 444.683 459.993 446.11 455.845C447.043 453.137 445.559 450.225 444.121 447.764C442.48 444.92 440.602 441.874 437.523 440.738C435.207 439.895 432.655 440.3 430.227 440.738L403.723 445.291L405.364 444.807" fill="#455A64"/>
<path d="M340.192 82.8317C322.713 77.9534 296.815 84.7426 286.923 99.9509C277.032 115.159 281.393 137.73 280.617 155.85C279.842 173.969 280.617 192.381 276.222 209.995C273.457 221.235 268.163 232.476 258.429 238.714C247.301 245.796 230.62 246.492 225.348 258.587C220.953 268.704 227.776 281.068 223.336 291.184C221.38 295.681 217.412 299.053 215.704 303.605C213.343 309.922 215.929 317.273 220.571 322.163C225.213 327.053 231.564 329.919 237.892 332.279C257.172 339.341 277.664 342.493 298.175 341.553C313.091 340.856 329.097 337.326 338.876 326.052C346.554 317.195 349.083 305.055 350.477 293.455C359.042 221.707 360.593 142.833 340.192 82.9442" fill="#263238"/>
<path d="M242.726 300.559C242.872 300.48 242.074 299.131 241.276 296.445C240.232 292.646 240.009 288.669 240.624 284.777C241.555 279.008 243.709 273.505 246.941 268.636C250.527 263.106 255.72 257.913 261.419 252.798C267.118 247.684 272.794 242.952 277.369 238.017C281.495 233.699 284.93 228.77 287.553 223.405C289.305 219.772 290.394 215.854 290.767 211.838C290.846 210.749 290.846 209.656 290.767 208.567C290.767 207.814 290.678 207.443 290.621 207.443C290.284 207.353 291.183 213.963 286.665 223C283.972 228.193 280.529 232.962 276.447 237.152C271.951 241.974 266.252 246.639 260.508 251.764C254.764 256.89 249.526 262.207 245.896 267.939C242.611 272.974 240.484 278.675 239.668 284.631C239.129 288.648 239.513 292.734 240.792 296.58C241.15 297.615 241.602 298.616 242.141 299.57C242.288 299.926 242.485 300.259 242.726 300.559Z" fill="#455A64"/>
<path d="M286.687 429.059L280.842 502.516L456.451 503.381L408.713 436.253L286.687 429.059Z" fill="#263238"/>
<path d="M147.857 252.382C148.351 252.81 137.572 310.327 132.12 339.125C131.209 343.943 131.668 348.919 133.445 353.489C135.221 358.059 138.244 362.04 142.169 364.978C146.225 368.01 151.072 369.803 156.125 370.138C161.178 370.473 166.22 369.337 170.641 366.866L243.76 328.817L221.369 281.934L175.283 308.09L178.318 259.318L147.857 252.382Z" fill="#FFBE9D"/>
<path d="M172.822 206.645C172.305 204.588 169.708 203.655 167.64 204.172C165.623 204.879 163.825 206.099 162.424 207.713L156.512 211.299C155.396 212.039 154.477 213.04 153.835 214.215C153.193 215.39 152.846 216.704 152.825 218.043C152.796 220.715 153.21 223.374 154.05 225.911C154.668 228.159 155.545 230.711 157.714 231.531C160.131 232.431 162.806 230.565 163.942 228.249C165.077 225.934 165.189 223.292 165.785 220.786C166.503 217.779 167.925 214.986 169.933 212.636C171.428 210.871 173.395 208.893 172.822 206.645Z" fill="#EB996E"/>
<path d="M123.701 208.961C123.518 208.387 123.479 207.778 123.588 207.186C123.696 206.594 123.949 206.038 124.323 205.567C124.698 205.096 125.182 204.724 125.735 204.485C126.287 204.246 126.889 204.146 127.489 204.195C139.494 205.184 168.011 209.174 184.928 214.041C208.915 220.943 224.707 225.405 224.707 225.405L275.649 224.281C275.649 224.281 269.534 241.839 250.122 241.929C235.431 241.996 220.02 232.554 220.02 232.554C220.02 232.554 154.736 210.321 127.32 211.523C126.52 211.559 125.73 211.328 125.075 210.866C124.42 210.404 123.937 209.738 123.701 208.972V208.961Z" fill="#455A64"/>
<path d="M266.128 224.427C266.758 226.215 264.678 227.8 262.824 228.137C260.969 228.474 258.845 228.384 257.507 229.71C257.033 230.28 256.687 230.946 256.493 231.662C256.299 232.378 256.261 233.127 256.383 233.858C256.648 235.315 256.825 236.786 256.911 238.264C256.94 239.269 256.591 240.248 255.933 241.007C254.596 242.367 252.134 241.906 250.841 240.513C249.658 238.997 249.013 237.13 249.009 235.207C248.992 233.845 248.792 232.491 248.413 231.183C248.214 230.529 247.843 229.94 247.339 229.477C246.835 229.015 246.216 228.695 245.547 228.553C243.94 228.35 242.524 229.564 240.984 230.104C240.176 230.332 239.329 230.383 238.501 230.253C237.672 230.123 236.881 229.816 236.183 229.351C235.484 228.886 234.895 228.276 234.454 227.562C234.014 226.848 233.734 226.047 233.632 225.214L266.128 224.427Z" fill="#FF6347"/>
<path d="M142.057 206.162C141.258 206.606 140.432 207 139.584 207.342C135.472 209.012 131.021 209.675 126.601 209.275C125.69 209.201 124.785 209.066 123.892 208.871C123.892 208.871 124.151 208.871 124.611 208.972C125.072 209.073 125.735 209.118 126.601 209.185C128.798 209.362 131.008 209.287 133.188 208.961C135.365 208.632 137.499 208.063 139.55 207.263C140.337 206.949 140.966 206.679 141.393 206.465L142.057 206.162Z" fill="#263238"/>
<path d="M164.403 209.388H164.189L163.582 209.32C163.054 209.253 162.289 209.185 161.334 209.129C158.862 208.982 156.381 209.11 153.938 209.511C151.496 209.927 149.107 210.606 146.811 211.535C145.934 211.906 145.226 212.22 144.754 212.456L144.203 212.715L144.001 212.794C144.001 212.794 144.057 212.794 144.181 212.67L144.709 212.366C145.181 212.108 145.833 211.771 146.755 211.389C149.045 210.403 151.445 209.697 153.904 209.287C156.363 208.883 158.861 208.773 161.345 208.961C162.301 209.039 163.065 209.14 163.593 209.23L164.2 209.343L164.403 209.388Z" fill="#263238"/>
<path d="M181.106 217.852L178.757 217.155L176.014 216.323C175.419 216.19 174.879 215.88 174.463 215.435C174.359 215.302 174.289 215.145 174.259 214.978C174.23 214.812 174.242 214.641 174.294 214.48C174.355 214.312 174.456 214.161 174.586 214.04C174.717 213.919 174.875 213.831 175.047 213.783C175.78 213.559 176.563 213.559 177.295 213.783C178.048 213.929 178.835 214.097 179.633 214.322C181.334 214.801 182.986 215.437 184.568 216.222C185.4 216.638 186.243 217.099 187.063 217.616C187.499 217.849 187.882 218.171 188.187 218.56C188.265 218.669 188.315 218.797 188.33 218.931C188.346 219.064 188.328 219.2 188.277 219.324C188.158 219.561 187.959 219.748 187.715 219.853C185.745 220.612 183.611 220.848 181.522 220.538C177.194 219.987 173.541 217.908 170.281 216.199C167.442 214.517 164.359 213.285 161.143 212.546C158.964 212.087 156.705 212.172 154.567 212.794C153.989 212.976 153.429 213.209 152.892 213.49C152.533 213.693 152.342 213.783 152.342 213.783L152.802 213.457C153.333 213.166 153.89 212.925 154.466 212.737C156.615 212.095 158.891 211.998 161.087 212.456C164.313 213.186 167.407 214.411 170.259 216.087C173.53 217.796 177.183 219.864 181.499 220.415C183.565 220.718 185.675 220.486 187.625 219.74C187.851 219.653 188.035 219.485 188.142 219.268C188.182 219.159 188.195 219.042 188.182 218.927C188.168 218.812 188.128 218.702 188.064 218.605C187.755 218.231 187.372 217.925 186.94 217.706C186.137 217.196 185.308 216.731 184.455 216.312C182.877 215.527 181.229 214.891 179.532 214.412C178.745 214.187 177.958 214.008 177.205 213.85C176.504 213.648 175.76 213.648 175.058 213.85C174.9 213.9 174.754 213.984 174.631 214.097C174.509 214.209 174.413 214.348 174.35 214.502C174.3 214.651 174.287 214.81 174.312 214.964C174.338 215.119 174.401 215.266 174.496 215.39C174.903 215.827 175.432 216.133 176.014 216.267L178.757 217.11L181.106 217.852Z" fill="#263238"/>
<path d="M192.953 216.829C193.156 217.176 193.293 217.557 193.358 217.953C193.541 218.871 193.427 219.824 193.032 220.673C192.615 221.512 191.947 222.2 191.121 222.64C190.772 222.829 190.391 222.951 189.997 223C190.353 222.882 190.699 222.736 191.031 222.562C191.845 222.13 192.5 221.451 192.902 220.623C193.304 219.794 193.432 218.859 193.268 217.953C193.193 217.57 193.088 217.195 192.953 216.829Z" fill="#263238"/>
<path d="M213.636 222.236C213.636 222.236 212.512 222.236 210.758 222.123C209.005 222.011 206.532 221.752 203.811 221.719C201.511 221.635 199.217 222.018 197.067 222.843C196.679 222.983 196.303 223.156 195.943 223.36C195.672 223.489 195.416 223.647 195.179 223.832L194.538 224.259L195.145 223.798C195.38 223.604 195.636 223.438 195.909 223.303C196.268 223.092 196.644 222.912 197.034 222.764C199.209 221.918 201.536 221.535 203.868 221.64C206.599 221.64 209.038 221.966 210.814 222.089C211.702 222.157 212.422 222.213 212.916 222.236H213.636Z" fill="#263238"/>
<path d="M235.206 239.197C235.206 239.197 234.801 238.849 234.082 238.197C233.722 237.871 233.273 237.478 232.733 237.073C232.194 236.668 231.609 236.129 230.89 235.623C229.265 234.393 227.564 233.267 225.798 232.251C221.473 229.782 216.795 227.993 211.927 226.945C209.945 226.507 207.936 226.199 205.913 226.024C205.048 225.911 204.261 225.9 203.575 225.866C202.89 225.833 202.294 225.866 201.811 225.866C202.294 225.866 202.935 225.866 203.575 225.866C204.216 225.866 205.048 225.866 205.913 226.001C207.942 226.173 209.959 226.473 211.95 226.9C214.384 227.426 216.78 228.117 219.121 228.969C221.44 229.879 223.694 230.95 225.865 232.172C227.633 233.186 229.334 234.312 230.957 235.544C231.665 236.039 232.25 236.567 232.789 237.006C233.329 237.444 233.767 237.826 234.116 238.13C234.858 238.826 235.206 239.197 235.206 239.197Z" fill="#263238"/>
<path d="M249.942 239.58C249.585 239.773 249.208 239.928 248.818 240.04C247.774 240.357 246.682 240.491 245.592 240.434C243.974 240.332 242.39 239.92 240.927 239.22C239.152 238.34 237.516 237.203 236.072 235.848C234.509 234.431 233.149 232.97 231.89 231.666C230.789 230.478 229.622 229.352 228.394 228.294C227.567 227.591 226.688 226.952 225.764 226.383C225.438 226.192 225.18 226.035 225 225.945L224.741 225.821C226.082 226.468 227.333 227.288 228.462 228.26C229.69 229.305 230.865 230.412 231.98 231.576C233.25 232.88 234.61 234.341 236.161 235.747C237.597 237.098 239.221 238.234 240.984 239.119C242.434 239.819 244.007 240.232 245.615 240.333C246.695 240.405 247.779 240.287 248.818 239.984C249.103 239.905 249.381 239.803 249.65 239.681L249.942 239.58Z" fill="#263238"/>
<path d="M269.242 234.173H268.86C268.601 234.173 268.242 234.173 267.792 234.173C266.618 234.175 265.446 234.296 264.296 234.533C263.135 234.784 262.004 235.16 260.924 235.657C260.519 235.837 260.182 236.005 259.969 236.129C259.855 236.197 259.734 236.254 259.609 236.297C260.017 236.025 260.446 235.785 260.89 235.578C263.026 234.547 265.377 234.042 267.747 234.105C268.246 234.095 268.746 234.117 269.242 234.173Z" fill="#263238"/>
<path d="M128.973 238.669L128.433 228.159C128.373 227.027 128.685 225.906 129.321 224.967L129.389 224.866C131.199 222.179 133.559 219.907 136.313 218.2L158.962 204.161C159.296 203.953 159.675 203.83 160.068 203.802C160.46 203.774 160.853 203.842 161.213 204C161.573 204.159 161.889 204.402 162.133 204.711C162.378 205.019 162.543 205.382 162.615 205.768C162.896 207.623 162.076 211.849 160.435 213.535C157.523 216.185 154.335 218.514 150.925 220.482L173.642 216.076C174.171 217.527 174.162 219.119 173.615 220.564C173.068 222.008 172.021 223.208 170.663 223.944L180.004 221.966C180.004 221.966 183.062 226.316 178.88 229.182C174.699 232.048 167.269 234.533 167.269 234.533C167.269 234.533 178.858 239.422 178.588 243.323C178.318 247.223 178.161 259.722 178.161 259.722L147.025 257.474L128.973 238.669Z" fill="#FFBE9D"/>
<path d="M151.746 219.796L151.532 219.92L150.88 220.246C150.318 220.538 149.498 220.943 148.509 221.471C147.519 222 146.395 222.719 145.136 223.539C143.877 224.36 142.472 225.203 141.135 226.237C140.48 226.738 139.956 227.39 139.606 228.137C139.306 228.847 139.168 229.615 139.201 230.385C139.293 231.692 139.542 232.982 139.943 234.229C140.201 235.087 140.378 235.968 140.472 236.859C140.51 237.184 140.51 237.512 140.472 237.837C140.472 237.837 140.472 237.489 140.393 236.859C140.273 235.982 140.078 235.117 139.808 234.274C139.375 233.018 139.107 231.71 139.01 230.385C138.97 229.589 139.108 228.794 139.415 228.058C139.782 227.281 140.324 226.6 141 226.069C141.666 225.555 142.361 225.078 143.079 224.641L145.047 223.371C146.294 222.562 147.441 221.853 148.419 221.336C149.397 220.819 150.251 220.437 150.835 220.212L151.499 219.92L151.746 219.796Z" fill="#EB996E"/>
<path d="M153.859 243.39C153.859 243.39 153.758 243.278 153.578 243.042L152.802 242.041L151.566 240.468C151.003 239.777 150.524 239.023 150.138 238.219C149.713 237.118 149.622 235.915 149.876 234.762C150.13 233.608 150.717 232.555 151.566 231.734C152.604 230.828 153.785 230.103 155.062 229.587C156.343 228.98 157.692 228.395 159.086 227.822C163.865 225.912 168.775 224.345 173.777 223.135C175.688 222.651 177.25 222.314 178.329 222.089L179.566 221.842L180.004 221.763C179.864 221.813 179.722 221.854 179.577 221.887L178.341 222.179C177.273 222.438 175.722 222.798 173.844 223.303C168.876 224.565 163.994 226.149 159.232 228.047C157.849 228.62 156.5 229.171 155.219 229.8C153.962 230.308 152.796 231.018 151.768 231.902C150.946 232.693 150.373 233.708 150.122 234.821C149.87 235.933 149.95 237.096 150.352 238.163C150.722 238.962 151.182 239.717 151.723 240.411C152.173 241.007 152.578 241.535 152.937 242.007C153.297 242.48 153.511 242.794 153.679 243.042C153.848 243.289 153.859 243.39 153.859 243.39Z" fill="#EB996E"/>
<path d="M177.958 229.429C177.796 229.55 177.623 229.655 177.441 229.744L175.991 230.509C174.766 231.149 173.058 232.004 171.113 232.847C169.455 233.565 167.759 234.192 166.032 234.724C165.369 234.926 164.83 235.072 164.447 235.162C164.257 235.224 164.061 235.269 163.863 235.297C164.04 235.201 164.229 235.129 164.425 235.083L165.976 234.566C167.291 234.117 169.079 233.442 171.023 232.633C172.968 231.824 174.676 230.958 175.924 230.385L177.396 229.688C177.575 229.583 177.763 229.497 177.958 229.429Z" fill="#EB996E"/>
<path d="M244.783 179.297C244.783 179.297 244.401 179.814 243.895 180.86C243.199 182.347 242.846 183.972 242.861 185.614C242.874 188.052 243.737 190.409 245.3 192.28C246.269 193.34 247.294 194.35 248.369 195.303C249.547 196.34 250.481 197.627 251.1 199.069C251.615 200.571 251.567 202.208 250.965 203.678C250.409 205.025 249.651 206.279 248.717 207.398C247.863 208.522 246.952 209.433 246.132 210.332C245.367 211.169 244.668 212.063 244.041 213.007C243.337 213.883 242.834 214.903 242.568 215.994C242.302 217.086 242.279 218.223 242.501 219.324C242.501 219.324 242.501 219.167 242.389 218.875C242.283 218.433 242.238 217.979 242.254 217.526C242.363 215.865 242.935 214.269 243.906 212.917C244.528 211.962 245.224 211.056 245.986 210.208C246.806 209.287 247.705 208.342 248.548 207.263C249.458 206.158 250.197 204.923 250.74 203.599C251.327 202.165 251.371 200.567 250.864 199.103C250.263 197.69 249.348 196.434 248.189 195.427C247.117 194.462 246.096 193.442 245.131 192.37C243.538 190.464 242.673 188.054 242.692 185.569C242.692 183.904 243.077 182.262 243.816 180.77C244.082 180.244 244.407 179.75 244.783 179.297Z" fill="#263238"/>
<path d="M255.09 178.758C255.09 178.758 254.708 179.286 254.202 180.331C253.51 181.816 253.161 183.437 253.179 185.075C253.181 187.518 254.045 189.883 255.619 191.752C256.495 192.786 257.597 193.73 258.676 194.775C259.861 195.802 260.796 197.086 261.407 198.529C261.919 200.035 261.876 201.674 261.284 203.149C260.722 204.494 259.965 205.748 259.036 206.87C258.17 207.994 257.26 208.893 256.45 209.804C255.685 210.639 254.983 211.529 254.348 212.468C253.396 213.789 252.814 215.342 252.662 216.964C252.648 217.564 252.701 218.163 252.82 218.751C252.769 218.604 252.727 218.454 252.696 218.301C252.596 217.863 252.554 217.413 252.572 216.964C252.681 215.302 253.249 213.702 254.214 212.344C254.843 211.394 255.542 210.493 256.304 209.646C257.114 208.725 258.013 207.78 258.867 206.701C259.773 205.596 260.508 204.36 261.048 203.037C261.635 201.604 261.683 200.007 261.183 198.541C260.575 197.135 259.661 195.883 258.507 194.876C257.383 193.831 256.338 192.887 255.439 191.819C253.844 189.909 252.98 187.495 253 185.007C253.006 183.346 253.39 181.709 254.124 180.219C254.396 179.7 254.72 179.211 255.09 178.758Z" fill="#263238"/>
<path d="M174.339 344.385C174.272 344.385 174.598 335.876 175.07 325.389C175.542 314.902 175.969 306.404 176.025 306.415C176.081 306.426 175.767 314.913 175.306 325.4C174.845 335.888 174.395 344.385 174.339 344.385Z" fill="#EB996E"/>
<path d="M154.792 264.185C152.646 262.122 150.613 259.946 148.7 257.665C150.845 259.728 152.879 261.905 154.792 264.185Z" fill="#EB996E"/>
<path d="M286.013 426.654L276.863 503.381H404.588L383.31 448.809L412.591 441.862C412.591 441.862 410.624 436.366 408.736 436.242C406.847 436.119 286.013 426.654 286.013 426.654Z" fill="#455A64"/>
<path d="M220.436 279.978C220.436 279.978 269.973 247.897 283 243.525C291.015 240.838 315.08 240.411 315.08 240.411L269.973 317.498L244.333 329.975L220.436 279.978Z" fill="#FF6347"/>
<path d="M468.748 333.887C453.619 297.355 429.137 256.081 421.887 249.01C414.637 241.94 370.181 236.23 370.181 236.23L311.888 242.558L265.151 306.629L285.619 406.545L284.922 407.871C283.392 410.819 282.689 414.125 282.887 417.44C283.085 420.755 284.177 423.955 286.046 426.699L408.747 436.298L408.904 341.688L468.748 333.887Z" fill="#FF6347"/>
<path d="M391.965 387.436C391.79 387.723 391.591 387.993 391.369 388.245C390.942 388.751 390.369 389.538 389.515 390.494C387.178 393.163 384.642 395.651 381.927 397.935C372.942 405.535 362.285 410.898 350.829 413.587C339.372 416.275 327.441 416.212 316.013 413.402C312.564 412.561 309.183 411.464 305.897 410.119C304.773 409.658 303.851 409.209 303.244 408.995C302.933 408.866 302.632 408.712 302.345 408.534C302.671 408.629 302.99 408.745 303.301 408.883C303.919 409.119 304.795 409.535 305.976 409.951C318.54 414.829 332.18 416.262 345.484 414.1C358.788 411.938 371.273 406.26 381.646 397.654C384.374 395.41 386.943 392.98 389.335 390.381C390.212 389.482 390.807 388.718 391.268 388.234C391.481 387.952 391.714 387.685 391.965 387.436Z" fill="#263238"/>
<path d="M408.871 338.124C408.768 337.829 408.692 337.524 408.646 337.214L408.106 334.606C407.645 332.268 406.982 328.986 406.218 324.973C404.678 316.779 402.565 305.55 400.238 293.151C399.946 291.6 399.665 290.06 399.384 288.543C399.103 287.025 398.754 285.542 398.597 284.047C398.21 281.186 398.104 278.295 398.282 275.414C398.467 272.812 398.861 270.23 399.462 267.692C400.029 265.492 400.754 263.335 401.632 261.24C402.907 258.209 404.557 255.351 406.544 252.731C407.218 251.775 407.848 251.123 408.23 250.651C408.412 250.399 408.628 250.172 408.871 249.977C408.871 249.977 408.691 250.236 408.32 250.73C407.949 251.225 407.364 251.854 406.735 252.866C404.828 255.512 403.243 258.376 402.014 261.397C401.165 263.479 400.47 265.621 399.935 267.804C399.353 270.317 398.977 272.874 398.81 275.448C398.65 278.292 398.767 281.146 399.159 283.968C399.316 285.452 399.687 286.913 399.946 288.464C400.204 290.015 400.508 291.51 400.8 293.073C403.048 305.437 405.116 316.678 406.611 324.928C407.331 328.963 407.904 332.257 408.309 334.595L408.747 337.225C408.812 337.521 408.854 337.822 408.871 338.124Z" fill="#263238"/>
<path d="M271.175 335.977C270.989 335.444 270.849 334.895 270.759 334.336C270.535 333.156 270.231 331.627 269.86 329.84C269.13 326.018 268.152 320.713 267.106 314.857C266.061 309 265.151 303.684 264.521 299.839C264.229 297.985 263.981 296.467 263.802 295.276C263.694 294.72 263.63 294.156 263.611 293.59C263.799 294.123 263.939 294.672 264.026 295.231C264.251 296.355 264.555 297.929 264.926 299.727C265.656 303.56 266.634 308.866 267.68 314.722C268.725 320.578 269.635 325.884 270.265 329.739C270.557 331.582 270.804 333.111 270.984 334.303C271.092 334.855 271.156 335.415 271.175 335.977Z" fill="#263238"/>
<path d="M413.086 283.473C413.411 281.297 413.926 279.153 414.626 277.066C415.144 274.929 415.852 272.841 416.739 270.828C416.406 273.004 415.887 275.148 415.188 277.235C414.678 279.374 413.974 281.462 413.086 283.473Z" fill="#FAFAFA"/>
<path d="M419.662 306.022C417.934 305.246 416.292 304.293 414.761 303.178C413.124 302.208 411.588 301.079 410.175 299.806C413.539 301.543 416.718 303.618 419.662 305.999V306.022Z" fill="#FAFAFA"/>
<path d="M432.071 297.31C431.808 295.367 431.853 293.394 432.206 291.465C432.366 289.511 432.824 287.593 433.566 285.778C433.735 285.778 433.195 288.363 432.79 291.544C432.386 294.725 432.24 297.31 432.071 297.31Z" fill="#FAFAFA"/>
<path d="M434.555 319.117C433.786 317.414 433.126 315.665 432.577 313.879C431.832 312.161 431.19 310.401 430.655 308.607C431.726 310.163 432.556 311.872 433.116 313.676C433.86 315.41 434.344 317.243 434.555 319.117Z" fill="#FAFAFA"/>
<path d="M424.933 332.605C421.865 330.316 419.033 327.725 416.48 324.872C419.555 327.154 422.388 329.745 424.933 332.605Z" fill="#FAFAFA"/>
<path d="M454.394 316.869C454.518 316.992 452.753 318.948 451.022 321.668C449.291 324.389 448.145 326.783 447.987 326.715C448.488 324.78 449.35 322.957 450.528 321.342C451.531 319.626 452.842 318.11 454.394 316.869Z" fill="#FAFAFA"/>
<path d="M422.269 261.555C421.054 260.854 419.945 259.983 418.976 258.969C417.871 258.1 416.891 257.083 416.065 255.946C417.278 256.659 418.389 257.532 419.369 258.542C420.471 259.407 421.447 260.421 422.269 261.555Z" fill="#FAFAFA"/>
<path d="M386.03 262.431C383.327 264.472 380.4 266.199 377.308 267.579C378.594 266.479 380.005 265.532 381.511 264.758C382.924 263.812 384.44 263.031 386.03 262.431Z" fill="#FAFAFA"/>
<path d="M379.691 294.163C378.502 292.988 377.453 291.679 376.566 290.263C375.521 288.959 374.634 287.537 373.924 286.025C376.16 288.501 378.096 291.233 379.691 294.163Z" fill="#FAFAFA"/>
<path d="M393.415 304.504C392.125 307.955 390.042 311.055 387.334 313.553C387.21 313.429 388.762 311.552 390.425 309.057C392.089 306.561 393.258 304.414 393.415 304.504Z" fill="#FAFAFA"/>
<path d="M360.065 306.82C359.896 306.876 358.941 304.358 357.401 301.469C355.861 298.581 354.276 296.4 354.411 296.288C357.159 299.257 359.094 302.884 360.031 306.82H360.065Z" fill="#FAFAFA"/>
<path d="M367.023 328.401C367.645 326.564 368.451 324.794 369.428 323.118C370.222 321.348 371.198 319.664 372.339 318.094C371.717 319.933 370.915 321.706 369.945 323.388C369.143 325.154 368.164 326.834 367.023 328.401Z" fill="#FAFAFA"/>
<path d="M390.301 344.588C389.647 342.592 389.173 340.542 388.885 338.462C388.417 336.42 388.139 334.339 388.053 332.246C388.71 334.237 389.184 336.283 389.47 338.36C389.938 340.406 390.217 342.491 390.301 344.588Z" fill="#FAFAFA"/>
<path d="M348.026 332.729C346.587 331.571 345.231 330.312 343.968 328.963C342.568 327.753 341.246 326.454 340.012 325.074C341.626 326.01 343.095 327.177 344.373 328.536C345.782 329.755 347.011 331.167 348.026 332.729Z" fill="#FAFAFA"/>
<path d="M329.277 301.481C326.748 304.273 323.934 306.793 320.881 309C323.41 306.208 326.224 303.688 329.277 301.481Z" fill="#FAFAFA"/>
<path d="M321.903 292.376C320.656 290.995 319.556 289.488 318.621 287.88C317.529 286.36 316.595 284.733 315.834 283.024C318.18 285.936 320.214 289.085 321.903 292.421V292.376Z" fill="#FAFAFA"/>
<path d="M293.308 308.068C291.797 306.38 290.432 304.567 289.228 302.65C287.868 300.847 286.668 298.928 285.642 296.917C287.152 298.598 288.514 300.407 289.711 302.324C291.078 304.128 292.282 306.05 293.308 308.068Z" fill="#FAFAFA"/>
<path d="M301.772 326.828C301.772 326.996 298.085 327.053 293.555 327.289C289.025 327.525 285.361 327.817 285.338 327.648C286.108 327.403 286.904 327.252 287.71 327.199C289.194 327.008 291.251 326.817 293.521 326.704C295.792 326.592 297.86 326.581 299.355 326.614C300.167 326.581 300.979 326.653 301.772 326.828Z" fill="#FAFAFA"/>
<path d="M303.851 272.413C304.009 272.413 303.368 275.234 302.783 278.696C302.199 282.158 301.884 285.002 301.716 284.991C301.658 280.703 302.381 276.441 303.851 272.413Z" fill="#FAFAFA"/>
<path d="M292.465 255.923C293.732 253.911 295.16 252.005 296.736 250.224C298.161 248.318 299.74 246.532 301.457 244.885C300.19 246.897 298.762 248.803 297.186 250.584C295.761 252.49 294.182 254.276 292.465 255.923Z" fill="#FAFAFA"/>
<path d="M281.044 271.3C280.921 271.412 278.268 268.715 274.761 265.68C271.254 262.645 268.264 260.284 268.365 260.15C269.122 260.495 269.829 260.941 270.467 261.476C271.715 262.375 273.39 263.724 275.154 265.241C276.919 266.759 278.414 268.299 279.471 269.423C280.076 269.976 280.605 270.607 281.044 271.3Z" fill="#FAFAFA"/>
<path d="M262.037 276.651C262.116 276.808 258.777 278.595 255.079 281.405C251.381 284.215 248.751 286.936 248.616 286.812C249.06 286.103 249.601 285.46 250.223 284.901C251.623 283.47 253.125 282.144 254.719 280.933C256.318 279.723 258.005 278.633 259.766 277.673C260.471 277.226 261.235 276.881 262.037 276.651Z" fill="#FAFAFA"/>
<path d="M236.532 292.432C236.375 292.432 236.397 289.386 236.251 285.632C236.105 281.877 235.858 278.887 236.027 278.887C236.563 281.095 236.834 283.359 236.836 285.632C237.017 287.902 236.915 290.187 236.532 292.432Z" fill="#FAFAFA"/>
<path d="M255.338 309.068C251.718 306.481 248.333 303.581 245.221 300.402C247.081 301.617 248.83 302.994 250.448 304.516C252.215 305.879 253.852 307.403 255.338 309.068Z" fill="#FAFAFA"/>
<path d="M285.069 285.238C282.964 285.993 280.797 286.565 278.594 286.947C276.43 287.522 274.217 287.898 271.985 288.071C274.093 287.315 276.263 286.743 278.47 286.362C280.632 285.793 282.84 285.417 285.069 285.238Z" fill="#FAFAFA"/>
<path d="M343.373 292.949C342.367 292.311 341.471 291.514 340.72 290.589C339.822 289.794 339.062 288.856 338.472 287.812C339.476 288.457 340.372 289.258 341.125 290.184C342.019 290.977 342.779 291.911 343.373 292.949Z" fill="#FAFAFA"/>
<path d="M369.529 277.763C368.551 279.041 367.418 280.192 366.157 281.192C365.019 282.337 363.747 283.34 362.369 284.182C364.493 281.757 366.905 279.602 369.552 277.763H369.529Z" fill="#FAFAFA"/>
<path d="M391.898 283.957C391.74 283.957 392.392 281.371 393.022 278.19C393.651 275.009 393.853 272.39 394.022 272.402C394.186 274.375 394.042 276.362 393.595 278.292C393.323 280.256 392.75 282.167 391.898 283.957Z" fill="#FAFAFA"/>
<path d="M276.975 320.117C276.264 319.331 275.704 318.42 275.323 317.431C274.774 316.525 274.394 315.527 274.199 314.486C274.924 315.268 275.495 316.179 275.885 317.172C276.42 318.081 276.79 319.079 276.975 320.117Z" fill="#FAFAFA"/>
<path d="M317.25 321.691C316.531 320.532 315.975 319.28 315.598 317.97C315.036 316.724 314.657 315.402 314.474 314.047C315.194 315.204 315.747 316.456 316.115 317.768C316.683 319.013 317.065 320.335 317.25 321.691Z" fill="#FAFAFA"/>
<path d="M339.214 310.63C339.09 310.518 339.742 309.574 340.675 308.517C341.608 307.461 342.451 306.685 342.575 306.786C342.698 306.887 342.035 307.843 341.113 308.899C340.192 309.956 339.394 310.732 339.214 310.63Z" fill="#FAFAFA"/>
<path d="M294.083 381.029C292.952 379.472 292.1 377.73 291.566 375.881C290.855 374.091 290.474 372.187 290.441 370.261C290.61 370.261 291.127 372.734 292.15 375.69C293.173 378.646 294.241 380.939 294.083 381.029Z" fill="#FAFAFA"/>
<path d="M311.225 382.311C311.506 380.645 311.973 379.016 312.619 377.455C313.077 375.833 313.726 374.271 314.552 372.801C314.273 374.463 313.81 376.087 313.17 377.646C312.703 379.27 312.051 380.836 311.225 382.311Z" fill="#FAFAFA"/>
<path d="M306.223 401.79C305.143 400.367 304.223 398.829 303.48 397.204C302.557 395.664 301.803 394.028 301.232 392.326C302.307 393.755 303.223 395.296 303.964 396.923C304.884 398.462 305.642 400.094 306.223 401.79Z" fill="#FAFAFA"/>
<path d="M337.977 396.192C336.035 395.895 334.143 395.327 332.357 394.506C330.509 393.867 328.763 392.962 327.175 391.82C329.017 392.432 330.822 393.149 332.582 393.967C334.424 394.598 336.226 395.341 337.977 396.192Z" fill="#FAFAFA"/>
<path d="M327.704 384.637C327.625 384.491 329.614 383.199 331.862 381.355C334.111 379.512 335.797 377.837 335.92 377.983C333.785 380.863 330.959 383.159 327.704 384.66V384.637Z" fill="#FAFAFA"/>
<path d="M354.163 392.854C354.062 392.989 352.017 391.73 349.33 390.426C346.644 389.122 344.351 388.392 344.396 388.234C348.007 388.87 351.381 390.466 354.163 392.854Z" fill="#FAFAFA"/>
<path d="M359.806 403.42C359.694 403.296 361.234 401.723 362.931 399.598C364.628 397.474 365.82 395.63 365.966 395.72C365.375 397.285 364.498 398.725 363.381 399.969C362.417 401.334 361.204 402.505 359.806 403.42Z" fill="#FAFAFA"/>
<path d="M302.087 423.833C300.217 422.94 298.437 421.871 296.77 420.64C294.988 419.579 293.313 418.348 291.768 416.965C293.637 417.858 295.418 418.927 297.085 420.157C298.866 421.219 300.541 422.45 302.087 423.833Z" fill="#FAFAFA"/>
<path d="M323.589 418.527C323.657 418.685 321.341 419.707 318.722 421.416C316.103 423.125 314.226 424.788 314.103 424.698C316.598 421.763 319.895 419.619 323.589 418.527Z" fill="#FAFAFA"/>
<path d="M342.822 427.025C341.873 426.078 341.059 425.003 340.405 423.833C339.594 422.766 338.946 421.584 338.483 420.326C340.253 422.348 341.715 424.621 342.822 427.07V427.025Z" fill="#FAFAFA"/>
<path d="M366 419.37C366.067 419.528 363.886 420.562 361.414 422.169C358.941 423.776 357.086 425.316 356.917 425.193C358.068 423.775 359.47 422.582 361.054 421.675C362.541 420.6 364.22 419.818 366 419.37Z" fill="#FAFAFA"/>
<path d="M376.712 409.31C376.554 409.389 375.891 408.186 374.632 407.208C373.373 406.23 372.126 405.736 372.171 405.578C373.226 405.563 374.245 405.968 375.003 406.702C375.895 407.311 376.51 408.249 376.712 409.31Z" fill="#FAFAFA"/>
<path d="M388.851 420.888C387.674 421.82 386.382 422.598 385.007 423.203C383.715 423.97 382.334 424.575 380.893 425.002C382.066 424.063 383.359 423.284 384.737 422.686C386.024 421.909 387.407 421.304 388.851 420.888Z" fill="#FAFAFA"/>
<path d="M399.788 427.025C399.62 427.025 400.238 424.451 400.643 421.281C401.047 418.111 401.092 415.492 401.272 415.492C401.581 417.434 401.562 419.413 401.216 421.349C401.065 423.308 400.583 425.228 399.788 427.025Z" fill="#FAFAFA"/>
<path d="M398.057 407.512C397.956 407.658 395.686 406.118 392.572 404.893C389.458 403.667 386.761 403.229 386.783 403.049C388.853 403.062 390.897 403.506 392.786 404.353C394.748 405.018 396.545 406.095 398.057 407.512Z" fill="#FAFAFA"/>
<path d="M373.688 348.668C370.319 346.942 367.136 344.874 364.19 342.497C367.555 344.23 370.737 346.297 373.688 348.668Z" fill="#FAFAFA"/>
<g opacity="0.3">
<path d="M316.677 413.649C316.318 412.947 316.208 412.145 316.365 411.373C316.522 410.601 316.937 409.905 317.542 409.4C318.789 408.425 320.293 407.836 321.87 407.703C329.918 406.444 338.539 408.624 346.082 405.556C351.14 403.488 355.074 399.272 358.041 394.709C361.009 390.145 363.358 385.154 366.292 380.546C368.922 376.398 372.283 372.441 376.869 370.665C381.455 368.889 387.424 370.025 389.908 374.262C392.392 378.5 390.729 383.704 388.402 387.886C381.826 399.688 369.979 408.04 357.063 412.019C344.148 415.998 330.244 415.897 316.913 413.536" fill="black"/>
</g>
<path d="M476.066 378.882L463.522 334.123L411.883 340.8L417.93 364.539L340.697 343.936L323.657 366.551L440.895 421.911C446.269 424.201 452.214 424.798 457.936 423.621C463.658 422.444 468.885 419.55 472.919 415.324C480.112 407.725 479.247 388.875 476.066 378.882Z" fill="#FFBE9D"/>
<path d="M262.621 335.977C260.89 335.517 258.8 335.146 257.518 336.382C257.012 336.978 256.714 337.724 256.67 338.504C256.625 339.285 256.836 340.06 257.271 340.71C258.069 342.047 258.676 342.238 260.789 342.958L281.348 347.623L289.216 341.463L262.621 335.977Z" fill="#EB996E"/>
<path d="M326.793 367.631C301.671 361.482 278.358 353.355 253.539 348.634C252.303 348.398 250.909 348.072 250.257 346.982C249.369 345.498 250.515 343.486 252.1 342.812C253.756 342.3 255.518 342.241 257.204 342.643C270.483 344.49 283.982 344.034 297.107 341.294C305.616 339.507 313.968 336.798 322.555 335.674C331.143 334.55 333.459 339.046 340.697 343.88" fill="#FFBE9D"/>
<path d="M340.697 343.936C338.607 340.269 335.568 337.234 331.898 335.149C328.229 333.064 324.066 332.007 319.846 332.088C314.71 332.257 309.797 334.123 304.84 335.46C299.883 336.798 294.466 337.63 289.677 335.741C287.845 335.022 286.136 333.909 284.181 333.639C282.225 333.37 279.887 334.325 279.538 336.258C279.268 337.72 280.213 339.114 281.236 340.204C284.833 344.003 296.286 348.23 305.313 347.78" fill="#FFBE9D"/>
<path d="M305.313 347.791C305.313 347.701 303.93 347.791 301.48 347.544C298.033 347.181 294.639 346.426 291.363 345.296C289.087 344.541 286.892 343.562 284.81 342.373C283.661 341.739 282.602 340.952 281.663 340.035C281.162 339.608 280.752 339.085 280.459 338.495C280.165 337.906 279.994 337.264 279.954 336.607C280.075 335.951 280.407 335.353 280.901 334.904C281.394 334.455 282.021 334.181 282.686 334.123C284.165 333.952 285.661 334.255 286.957 334.988C288.423 335.749 289.963 336.355 291.554 336.798C293.217 337.194 294.927 337.361 296.635 337.293C303.593 337.057 309.584 334.168 315.272 333.077C317.944 332.472 320.7 332.328 323.421 332.65C325.786 332.966 328.09 333.637 330.255 334.64C333.408 336.104 336.207 338.232 338.461 340.878C340.034 342.767 340.709 343.992 340.709 343.947C340.605 343.628 340.458 343.325 340.27 343.048C339.813 342.206 339.279 341.408 338.674 340.665C336.485 337.868 333.681 335.614 330.48 334.078C328.267 333.003 325.901 332.279 323.466 331.931C320.668 331.564 317.827 331.681 315.069 332.279C309.247 333.403 303.267 336.191 296.568 336.416C294.935 336.476 293.302 336.317 291.712 335.944C290.176 335.516 288.688 334.932 287.272 334.202C285.81 333.406 284.134 333.092 282.483 333.302C281.656 333.443 280.88 333.8 280.235 334.336C279.908 334.618 279.64 334.961 279.447 335.347C279.254 335.733 279.14 336.154 279.111 336.584C279.144 337.356 279.336 338.113 279.674 338.807C280.013 339.501 280.491 340.118 281.078 340.62C282.084 341.582 283.219 342.399 284.45 343.048C286.594 344.239 288.854 345.207 291.195 345.936C294.545 347.031 298.019 347.707 301.536 347.949C302.49 348.006 303.448 348.006 304.402 347.949C304.711 347.933 305.016 347.88 305.313 347.791Z" fill="#EB996E"/>
<path d="M440.928 371.677C440.928 371.677 440.838 371.677 440.67 371.598L439.939 371.34L437.286 370.373C435.038 369.564 431.914 368.496 428.44 367.406C424.967 366.315 421.786 365.416 419.448 364.809L416.717 364.101L415.963 363.91C415.795 363.91 415.705 363.831 415.716 363.82H415.975L416.739 363.966C417.391 364.101 418.335 364.315 419.493 364.596C421.82 365.18 425.001 366.046 428.485 367.136C431.97 368.226 435.083 369.328 437.32 370.171C438.444 370.598 439.332 370.958 439.95 371.216L440.659 371.52L440.928 371.677Z" fill="#EB996E"/>
<path d="M343.89 279.359C350.968 279.055 357.656 276.029 362.557 270.912C367.458 265.796 370.193 258.984 370.192 251.899V219.302L371.991 115.148L369.664 109.28L314.811 91.9702C297.95 90.6551 286.62 113.844 286.024 130.75C285.361 149.544 285.293 172.508 287.901 186.435C293.139 214.446 314.811 217.436 314.811 217.436L315.238 252.281C315.289 255.957 316.076 259.585 317.554 262.95C319.032 266.316 321.17 269.351 323.841 271.876C326.513 274.4 329.663 276.364 333.107 277.649C336.551 278.935 340.217 279.516 343.89 279.359Z" fill="#FFBE9D"/>
<path d="M293.308 149.015C293.325 149.958 293.71 150.856 294.379 151.519C295.049 152.183 295.951 152.559 296.893 152.567C297.354 152.588 297.815 152.518 298.248 152.359C298.681 152.2 299.078 151.957 299.416 151.643C299.754 151.329 300.026 150.951 300.216 150.53C300.407 150.11 300.511 149.656 300.524 149.195C300.504 148.255 300.118 147.359 299.449 146.698C298.779 146.037 297.879 145.663 296.938 145.655C296.478 145.63 296.017 145.699 295.583 145.856C295.15 146.013 294.752 146.255 294.413 146.568C294.075 146.882 293.803 147.26 293.613 147.68C293.423 148.1 293.319 148.554 293.308 149.015Z" fill="#263238"/>
<path d="M291.318 142.372C291.779 142.833 294.466 140.731 298.344 140.63C302.221 140.529 305.088 142.395 305.537 141.911C305.74 141.698 305.256 140.855 303.986 139.989C302.277 138.869 300.262 138.307 298.22 138.382C296.184 138.42 294.215 139.109 292.6 140.349C291.476 141.304 291.06 142.17 291.318 142.372Z" fill="#263238"/>
<path d="M330.952 149.015C330.969 149.956 331.352 150.853 332.02 151.516C332.687 152.179 333.586 152.556 334.526 152.567C334.988 152.592 335.45 152.523 335.884 152.365C336.319 152.208 336.717 151.964 337.055 151.65C337.394 151.335 337.666 150.956 337.855 150.534C338.045 150.113 338.147 149.657 338.157 149.195C338.142 148.255 337.76 147.358 337.092 146.696C336.424 146.034 335.523 145.66 334.583 145.655C334.122 145.63 333.661 145.699 333.228 145.856C332.794 146.013 332.396 146.255 332.058 146.568C331.719 146.882 331.447 147.26 331.257 147.68C331.067 148.1 330.963 148.554 330.952 149.015Z" fill="#263238"/>
<path d="M329.513 142.046C329.974 142.496 332.661 140.405 336.538 140.304C340.416 140.203 343.283 142.069 343.732 141.585C343.923 141.372 343.451 140.529 342.181 139.663C340.472 138.544 338.457 137.983 336.415 138.056C334.379 138.094 332.41 138.783 330.795 140.023C329.671 140.978 329.277 141.833 329.513 142.046Z" fill="#263238"/>
<path d="M316.216 171.226C316.216 171.013 313.799 170.653 309.876 170.26C308.887 170.192 307.943 170.024 307.752 169.349C307.638 168.327 307.842 167.295 308.336 166.393C309.202 163.965 310.101 161.425 311.056 158.761C314.833 147.891 317.542 138.978 317.104 138.82C316.665 138.663 313.237 147.363 309.472 158.221L306.864 165.899C306.527 167.023 305.908 168.326 306.459 169.799C306.611 170.146 306.841 170.454 307.132 170.698C307.422 170.941 307.765 171.115 308.134 171.204C308.685 171.343 309.252 171.407 309.82 171.395C313.765 171.496 316.205 171.451 316.216 171.226Z" fill="#263238"/>
<path d="M314.799 217.256C328.055 217.091 341.005 213.251 352.208 206.162C352.208 206.162 343.597 225.743 315.362 223.888L314.799 217.256Z" fill="#EB996E"/>
<path d="M328.086 126.905C328.502 127.951 332.368 127.344 336.932 127.771C341.496 128.198 345.227 129.333 345.812 128.367C346.059 127.906 345.396 126.928 343.878 125.95C341.863 124.751 339.601 124.026 337.264 123.832C334.927 123.637 332.576 123.977 330.39 124.826C328.726 125.5 327.917 126.355 328.086 126.905Z" fill="#263238"/>
<path d="M292.442 131.087C293.15 131.952 295.814 130.963 299.018 130.828C302.221 130.694 304.975 131.267 305.571 130.323C305.83 129.862 305.38 128.996 304.166 128.198C302.553 127.208 300.669 126.751 298.782 126.894C296.894 126.982 295.079 127.653 293.589 128.816C292.476 129.749 292.184 130.671 292.442 131.087Z" fill="#263238"/>
<path d="M305.133 93.8923C306.437 102.7 309.927 111.04 315.283 118.151C320.639 125.263 327.692 130.92 335.797 134.605C335.31 132.357 334.83 130.109 334.358 127.861C341.304 139.349 356.052 148.97 365.539 152.86C368.473 154.062 372.227 152.983 374.891 151.275C378.623 148.892 378.847 143.541 378.061 139.18C375.621 125.534 367.528 113.327 356.985 104.335C346.441 95.3424 333.582 89.34 320.285 85.3159C316.767 84.248 314.844 83.5174 311.36 84.6977C307.875 85.8779 303.312 89.8458 304.998 93.1055" fill="#263238"/>
<path d="M361.088 132.188C369.136 161.02 358.491 193.067 361.234 222.876C361.841 229.519 364.257 237.208 369.855 240.861C372.62 242.659 373.227 241.524 376.408 242.154C384.535 243.727 392.212 240.321 400.328 241.895C407.657 243.323 419.313 247.515 423.933 241.637C428.553 235.758 423.225 228.845 418.706 223.09C414.187 217.335 408.118 212.411 405.892 205.431C403.486 197.934 406.083 189.886 407.207 182.085C411.051 155.456 401.587 128.479 385.85 106.639C380.365 99.0292 372.092 91.8241 364.651 86.1027C357.21 80.3813 340.383 75.5592 331.008 75.9863C321.634 76.4135 306.021 83.8546 302.199 94.3644" fill="#263238"/>
<path d="M329.963 115.732C329.907 115.834 330.525 116.25 331.716 116.935L333.841 118.172L332.031 116.441C327.626 112.34 323.863 107.599 320.869 102.379C315.249 92.7008 314.395 83.4275 313.945 83.5399C313.799 83.5399 313.799 85.8554 314.541 89.5086C315.545 94.2452 317.282 98.7961 319.689 102.997C322.681 108.386 326.753 113.101 331.649 116.845L331.975 116.351C330.705 115.879 330.008 115.665 329.963 115.732Z" fill="#455A64"/>
<path d="M380.983 235.69C381.037 235.073 381.037 234.453 380.983 233.836C380.983 232.622 380.983 230.834 381.039 228.53C381.413 222.043 382.368 215.603 383.894 209.287C385.625 201.238 388.492 191.808 390.212 180.949C391.104 175.259 391.379 169.49 391.032 163.74C390.73 157.496 389.166 151.379 386.435 145.756C383.592 140.176 379.428 135.376 374.306 131.773C369.473 128.187 364.426 125.422 359.817 122.544C351.613 117.497 344.062 111.456 337.337 104.559C332.827 99.8905 328.693 94.8729 324.972 89.5535C323.657 87.6651 322.657 86.1814 321.993 85.1585C321.674 84.6178 321.297 84.1128 320.869 83.6523C321.105 84.2273 321.39 84.7803 321.724 85.3046C322.297 86.4287 323.241 87.9124 324.489 89.8008C328.078 95.2708 332.144 100.413 336.64 105.166C343.316 112.239 350.871 118.427 359.121 123.578C363.752 126.501 368.765 129.288 373.475 132.807C378.413 136.288 382.433 140.917 385.187 146.295C387.832 151.745 389.36 157.669 389.683 163.718C390.035 169.374 389.79 175.052 388.953 180.657C387.323 191.381 384.546 200.89 382.928 208.972C381.471 215.353 380.654 221.863 380.489 228.407C380.46 230.185 380.527 231.963 380.691 233.735C380.71 234.396 380.809 235.052 380.983 235.69Z" fill="#455A64"/>
<path d="M286.002 107.291C285.002 114.562 284.416 121.884 284.248 129.221C289.936 124.635 295.68 119.948 299.985 114.024C304.29 108.1 306.976 100.693 305.852 93.4652C301.733 94.6766 298.006 96.9518 295.046 100.062C292.086 103.172 289.998 107.006 288.991 111.18" fill="#263238"/>
<path d="M314.991 184.4C315.957 182.512 316.216 182.029 317.857 181.129C319.101 180.815 320.385 180.686 321.667 180.747C322.915 180.815 323.747 182.051 324.208 183.209C324.961 184.883 325.069 186.777 324.511 188.526C323.859 190.223 317.969 192.257 314.799 187.795" fill="#EB996E"/>
<path d="M319.835 190.751C320.157 190.73 320.48 190.73 320.802 190.751C321.655 190.71 322.477 190.417 323.162 189.908C324.095 189.061 324.697 187.909 324.86 186.66C324.991 185.916 324.933 185.152 324.692 184.437C324.45 183.722 324.032 183.079 323.477 182.568C322.262 181.614 320.75 181.117 319.206 181.163C318.585 181.187 317.976 181.343 317.42 181.62C316.864 181.897 316.373 182.289 315.98 182.77C315.456 183.45 315.112 184.25 314.979 185.097C314.955 185.421 314.895 185.742 314.799 186.053C314.707 185.731 314.688 185.393 314.743 185.063C314.805 184.149 315.121 183.269 315.654 182.523C316.038 182.011 316.519 181.58 317.07 181.253C317.714 180.877 318.439 180.661 319.183 180.623C319.989 180.593 320.794 180.695 321.566 180.927C322.396 181.156 323.164 181.567 323.814 182.13C324.498 182.721 324.988 183.504 325.219 184.378C325.45 185.162 325.492 185.99 325.343 186.794C325.203 187.505 324.956 188.191 324.612 188.829C324.256 189.532 323.7 190.114 323.014 190.501C322.328 190.889 321.543 191.066 320.757 191.01C320.433 191 320.117 190.911 319.835 190.751Z" fill="#263238"/>
<path d="M333.2 162.077C333.301 162.2 332.93 162.628 332.278 162.706C331.626 162.785 331.154 162.436 331.244 162.302C331.334 162.167 331.739 162.178 332.211 162.122C332.683 162.066 333.099 161.942 333.2 162.077Z" fill="#EB996E"/>
<path d="M339.394 161.751C339.236 161.751 339.023 161.447 338.933 161.009C338.843 160.571 338.876 160.177 339.034 160.143C339.191 160.11 339.405 160.436 339.506 160.885C339.607 161.335 339.596 161.751 339.394 161.751Z" fill="#EB996E"/>
<path d="M346.913 159.255C346.913 159.413 346.486 159.458 346.048 159.368C345.61 159.278 345.272 159.053 345.306 158.896C345.34 158.738 345.733 158.693 346.172 158.795C346.61 158.896 346.947 159.098 346.913 159.255Z" fill="#EB996E"/>
<path d="M336.415 168.326C336.257 168.326 336.123 167.967 336.123 167.528C336.123 167.09 336.257 166.73 336.415 166.73C336.572 166.73 336.707 167.079 336.707 167.528C336.707 167.978 336.572 168.326 336.415 168.326Z" fill="#EB996E"/>
<path d="M343.17 165.303C343.013 165.303 342.878 165.224 342.878 165.123C342.878 165.022 343.013 164.943 343.17 164.943C343.328 164.943 343.463 165.022 343.463 165.123C343.463 165.224 343.339 165.303 343.17 165.303Z" fill="#EB996E"/>
<path d="M294.792 163.167C294.792 163.324 294.23 163.437 293.667 163.167C293.105 162.897 292.757 162.392 292.881 162.29C293.004 162.189 293.409 162.414 293.904 162.639C294.398 162.864 294.803 162.998 294.792 163.167Z" fill="#EB996E"/>
<path d="M299.816 162.111C299.733 162.08 299.665 162.018 299.627 161.938C299.59 161.858 299.585 161.767 299.614 161.683C299.67 161.492 299.827 161.357 299.985 161.402C300.068 161.433 300.135 161.495 300.173 161.575C300.211 161.654 300.216 161.746 300.187 161.829C300.181 161.872 300.167 161.914 300.146 161.951C300.124 161.989 300.095 162.022 300.06 162.048C300.026 162.074 299.986 162.093 299.945 162.104C299.903 162.115 299.859 162.117 299.816 162.111Z" fill="#EB996E"/>
<path d="M297.13 169.394C296.972 169.394 296.804 169.147 296.759 168.81C296.714 168.473 296.759 168.169 296.961 168.147C297.163 168.124 297.287 168.383 297.343 168.731C297.399 169.08 297.298 169.372 297.13 169.394Z" fill="#EB996E"/>
<path d="M290.52 169.035C290.385 168.945 290.441 168.641 290.633 168.338C290.824 168.034 291.105 167.877 291.24 167.967C291.374 168.057 291.318 168.371 291.127 168.664C290.936 168.956 290.655 169.125 290.52 169.035Z" fill="#EB996E"/>
<path d="M265.319 420.629V472.785C265.318 477.164 264.273 481.481 262.269 485.375C260.265 489.269 257.361 492.629 253.798 495.176C249.132 498.503 243.544 500.291 237.814 500.29H168.123C162.905 500.294 157.794 498.813 153.387 496.019L150.981 494.468C147.071 491.99 143.848 488.567 141.612 484.513C139.376 480.46 138.199 475.908 138.19 471.279V420.629H265.319Z" fill="#263238"/>
<path d="M138.19 433.185H102.861V439.322L123.263 442.458C126.247 442.874 129.078 444.038 131.491 445.843C133.904 447.647 135.822 450.032 137.066 452.777C137.781 454.373 138.163 456.098 138.19 457.846C138.19 457.846 145.384 457.734 146.609 449.135C146.609 448.966 146.665 448.798 146.688 448.629C147.093 445.521 146.509 442.365 145.017 439.608C143.526 436.852 141.204 434.636 138.381 433.275L138.19 433.185Z" fill="#455A64"/>
<path d="M265.319 433.23H300.67V439.389L280.269 442.526C277.275 442.938 274.434 444.105 272.014 445.916C269.594 447.726 267.673 450.122 266.432 452.878C265.717 454.474 265.334 456.199 265.308 457.947C265.308 457.947 258.125 457.835 256.889 449.247L256.821 448.73C256.416 445.623 257 442.466 258.492 439.71C259.983 436.953 262.305 434.737 265.128 433.376L265.319 433.23Z" fill="#455A64"/>
<path d="M265.319 433.23C265.156 433.352 264.983 433.461 264.802 433.556C264.289 433.831 263.793 434.139 263.318 434.477C261.51 435.742 260.002 437.388 258.901 439.3C257.181 442.25 256.548 445.71 257.114 449.079C257.347 451.137 258.162 453.086 259.463 454.699C260.956 456.412 263.064 457.466 265.33 457.633L265.061 457.891C265.089 455.813 265.601 453.769 266.556 451.923C267.522 449.946 268.87 448.181 270.523 446.729C272.261 445.197 274.27 444.003 276.447 443.211C278.7 442.477 281.025 441.983 283.383 441.739L300.659 439.097L300.423 439.367C300.423 437.265 300.423 435.219 300.423 433.23L300.693 433.499L275.233 433.398L267.961 433.32H266.016C265.792 433.345 265.566 433.345 265.342 433.32H266.005H267.927L275.177 433.241L300.693 433.14H300.963V433.41C300.963 435.399 300.963 437.445 300.963 439.547V439.794H300.727L283.45 442.458C281.131 442.701 278.844 443.187 276.627 443.908C274.529 444.664 272.592 445.808 270.917 447.28C269.342 448.609 268.056 450.248 267.142 452.094C266.227 453.941 265.702 455.957 265.6 458.015V458.296H265.342C264.145 458.211 262.978 457.888 261.909 457.346C260.84 456.803 259.889 456.052 259.114 455.137C257.768 453.456 256.933 451.423 256.709 449.281C256.161 445.821 256.849 442.279 258.654 439.277C259.797 437.345 261.37 435.703 263.251 434.477C263.743 434.153 264.258 433.863 264.791 433.612C264.954 433.468 265.131 433.34 265.319 433.23Z" fill="#263238"/>
<path d="M263.049 422.023C262.959 422.092 262.861 422.149 262.756 422.192L261.88 422.63L258.507 424.282L256.046 425.463C255.135 425.878 254.112 426.261 253.033 426.699C250.864 427.553 248.436 428.644 245.626 429.498L241.253 430.959C239.725 431.454 238.095 431.825 236.431 432.285C233.115 433.263 229.485 433.927 225.685 434.713C217.38 436.151 208.97 436.903 200.541 436.962C192.111 436.909 183.701 436.157 175.396 434.713C171.596 433.938 167.966 433.263 164.65 432.297C162.986 431.825 161.356 431.454 159.828 430.959L155.455 429.509C152.645 428.655 150.217 427.565 148.036 426.721C146.912 426.272 145.946 425.89 145.035 425.485L142.574 424.305L139.201 422.652L138.325 422.214L138.044 422.045C138.154 422.066 138.26 422.104 138.358 422.158L139.258 422.54C140.078 422.922 141.236 423.439 142.697 424.091L145.181 425.215C146.092 425.609 147.115 425.968 148.194 426.407C150.374 427.216 152.802 428.284 155.624 429.104L159.996 430.521C161.514 431.004 163.144 431.364 164.796 431.813C168.112 432.769 171.731 433.41 175.531 434.174C183.805 435.594 192.18 436.345 200.574 436.422C208.969 436.346 217.344 435.594 225.618 434.174C229.417 433.41 233.037 432.758 236.353 431.802C238.005 431.353 239.635 430.993 241.152 430.51L245.525 429.093C248.335 428.273 250.774 427.205 252.943 426.384C254.067 425.957 255.045 425.586 255.967 425.204L258.44 424.08L261.835 422.529L262.734 422.135L263.049 422.023Z" fill="#455A64"/>
<path d="M263.127 426.339C263.127 426.339 263.037 426.407 262.835 426.508L261.958 426.958L258.586 428.61L256.124 429.734C255.214 430.139 254.191 430.521 253.123 430.97C250.943 431.825 248.515 432.915 245.705 433.769L241.332 435.219C239.803 435.714 238.185 436.085 236.521 436.557C233.149 437.535 229.563 438.198 225.764 438.985C217.462 440.423 209.056 441.174 200.63 441.233C192.201 441.175 183.791 440.423 175.486 438.985C171.675 438.198 168.044 437.535 164.729 436.557C163.065 436.096 161.435 435.725 159.906 435.23L155.534 433.78C152.724 432.926 150.296 431.836 148.126 430.982C147.002 430.543 146.024 430.161 145.114 429.745L142.686 428.632L139.314 426.98L138.437 426.542C138.235 426.44 138.134 426.384 138.145 426.373L138.46 426.485L139.359 426.879L142.798 428.43L145.283 429.554C146.204 429.936 147.216 430.307 148.306 430.734C150.476 431.555 152.915 432.611 155.725 433.443L160.097 434.848C161.615 435.332 163.245 435.691 164.908 436.141C168.213 437.096 171.844 437.748 175.632 438.513C183.91 439.932 192.288 440.684 200.687 440.761C209.082 440.689 217.457 439.938 225.73 438.513C229.518 437.748 233.138 437.108 236.454 436.152C238.106 435.703 239.736 435.343 241.265 434.86L245.626 433.443C248.447 432.611 250.875 431.555 253.056 430.734C254.18 430.307 255.158 429.936 256.068 429.543L258.552 428.419L261.992 426.868L262.891 426.485L263.127 426.339Z" fill="#455A64"/>
<path d="M239.151 501.909C248.425 500.47 253.191 495.412 255.888 486.419C256.878 483.646 256.953 480.628 256.102 477.809C255.113 475.067 252.483 472.762 249.56 472.875C246.031 473.021 243.513 476.359 242.074 479.619C240.635 482.879 239.567 486.487 236.791 488.679C234.015 490.871 228.81 490.219 228.214 486.723C228.209 485.798 228.111 484.875 227.922 483.969C227.135 481.856 223.786 481.968 222.302 483.688C220.818 485.408 220.773 487.881 220.841 490.14C220.908 492.399 220.987 494.827 219.717 496.704C217.84 499.503 213.917 499.818 210.545 499.84L190.626 500.032C190.626 500.032 193.999 501.684 202.923 501.684C215.041 501.65 239.151 501.909 239.151 501.909Z" fill="#FF6347"/>
<path d="M200.63 499.998C193.965 500.11 186.895 500.122 181.207 496.626C177.61 494.434 174.598 490.904 170.439 490.275C169.246 490.027 168.003 490.244 166.965 490.882C166.459 491.209 166.083 491.702 165.9 492.276C165.718 492.85 165.741 493.47 165.965 494.029C164.122 493.332 162.716 491.86 161.132 490.657C159.547 489.454 157.49 488.589 155.646 489.297C154.707 489.75 153.954 490.516 153.517 491.464C153.08 492.411 152.987 493.481 153.252 494.49C153.566 495.483 154.089 496.398 154.785 497.173C155.481 497.949 156.334 498.567 157.287 498.986C159.202 499.818 161.228 500.367 163.301 500.616L211.264 501.527C211.253 500.313 200.63 499.998 200.63 499.998Z" fill="#FF6347"/>
<path d="M163.2 503.381L163.301 500.74L239.151 501.909V503.381H163.2Z" fill="#455A64"/>
<path d="M234.307 472.785C233.41 471.281 232.903 469.578 232.832 467.829C232.761 466.079 233.129 464.34 233.902 462.77C234.588 461.409 235.993 460.061 237.443 460.521C238.893 460.982 239.185 462.77 239.151 464.208C239.073 467.344 236.813 473.684 234.307 472.762" fill="#FF6347"/>
<path d="M189.896 378.691C189.963 378.691 189.828 379.231 189.896 380.197C190.026 381.56 190.387 382.89 190.964 384.131C191.878 385.991 192.59 387.943 193.088 389.954C193.441 392.543 192.79 395.17 191.267 397.294C189.828 399.598 188.109 401.498 186.985 403.488C186.437 404.415 186.01 405.408 185.714 406.444C185.487 407.343 185.423 408.276 185.523 409.198C185.635 410.554 186.202 411.833 187.131 412.828C187.506 413.158 187.9 413.466 188.311 413.75C188.311 413.75 188.176 413.75 187.929 413.626C187.584 413.459 187.263 413.248 186.973 412.997C185.931 412.007 185.27 410.682 185.107 409.254C184.969 408.276 185.018 407.28 185.254 406.32C185.535 405.226 185.962 404.175 186.524 403.195C187.648 401.138 189.379 399.205 190.773 396.957C192.224 394.954 192.866 392.477 192.571 390.021C192.093 388.046 191.43 386.119 190.593 384.266C190.034 382.976 189.725 381.592 189.682 380.186C189.681 379.808 189.723 379.431 189.806 379.062C189.816 378.934 189.846 378.809 189.896 378.691Z" fill="#263238"/>
<path d="M201.721 377.679C201.788 377.679 201.642 378.219 201.721 379.186C201.857 380.547 202.217 381.877 202.789 383.12C203.702 384.981 204.418 386.932 204.924 388.942C205.268 391.533 204.613 394.157 203.092 396.282C201.653 398.587 199.945 400.486 198.809 402.476C198.262 403.402 197.839 404.396 197.551 405.432C197.314 406.334 197.246 407.271 197.348 408.197C197.465 409.549 198.031 410.823 198.956 411.817C199.331 412.146 199.725 412.454 200.136 412.738C200.136 412.738 200.001 412.738 199.765 412.615C199.413 412.455 199.087 412.243 198.798 411.985C197.759 410.995 197.102 409.669 196.944 408.242C196.806 407.264 196.852 406.27 197.078 405.308C197.357 404.221 197.785 403.177 198.349 402.206C199.473 400.149 201.192 398.216 202.598 395.979C204.045 393.97 204.684 391.49 204.385 389.032C203.916 387.054 203.254 385.126 202.406 383.277C201.848 381.987 201.539 380.602 201.496 379.197C201.495 378.819 201.536 378.442 201.62 378.073C201.653 377.803 201.698 377.668 201.721 377.679Z" fill="#263238"/>
<path d="M213.501 376.69C213.568 376.69 213.433 377.23 213.501 378.197C213.657 379.564 214.036 380.897 214.625 382.142C215.536 383.999 216.248 385.947 216.749 387.953C217.093 390.544 216.438 393.168 214.917 395.293C213.478 397.598 211.77 399.497 210.646 401.487C210.095 402.413 209.668 403.406 209.376 404.443C209.143 405.345 209.078 406.282 209.184 407.208C209.298 408.559 209.86 409.833 210.781 410.828C211.158 411.159 211.556 411.467 211.972 411.749C211.972 411.749 211.826 411.749 211.59 411.626C211.24 411.461 210.915 411.249 210.623 410.996C209.584 410.005 208.927 408.68 208.769 407.253C208.631 406.275 208.677 405.28 208.903 404.319C209.19 403.238 209.617 402.199 210.174 401.228C211.298 399.16 213.029 397.227 214.422 394.99C215.868 392.98 216.51 390.502 216.221 388.043C215.744 386.065 215.078 384.138 214.231 382.288C213.678 380.996 213.369 379.613 213.321 378.208C213.323 377.829 213.368 377.452 213.456 377.084C213.433 376.814 213.501 376.69 213.501 376.69Z" fill="#263238"/>
<path d="M49.3904 503.786C49.3904 503.786 34.2383 429.768 49.3904 388.639H66.2511C66.2511 388.639 79.1214 432.016 66.2511 503.786H49.3904Z" fill="#FF6347"/>
<g opacity="0.7">
<path d="M49.3904 503.786C49.3904 503.786 34.2383 429.768 49.3904 388.639H66.2511C66.2511 388.639 79.1214 432.016 66.2511 503.786H49.3904Z" fill="white"/>
</g>
<path d="M61.8111 350.219C64.5996 345.447 68.5776 341.48 73.357 338.704C78.1363 335.928 83.5537 334.439 89.0804 334.381C86.4714 339.597 82.4112 343.948 77.3881 346.912C72.365 349.875 66.5929 351.324 60.7658 351.085" fill="#455A64"/>
<path d="M65.9813 319.364C62.1543 315.37 59.4298 310.45 58.0742 305.087C56.7186 299.724 56.7785 294.101 58.2479 288.768C62.5476 292.707 65.6163 297.807 67.0842 303.451C68.552 309.095 68.3564 315.043 66.5208 320.578" fill="#455A64"/>
<path d="M50.8292 319.803C46.3025 317.975 42.3342 314.993 39.3204 311.152C36.3066 307.312 34.3527 302.749 33.6538 297.917C38.5459 299.528 42.8608 302.533 46.0679 306.563C49.2751 310.593 51.2347 315.472 51.706 320.601" fill="#455A64"/>
<path d="M46.6815 286.935C45.9138 283.461 46.0714 279.846 47.1385 276.451C48.2056 273.056 50.1449 270.001 52.7626 267.591C53.8116 271.202 53.7821 275.041 52.6777 278.636C51.5733 282.231 49.4422 285.424 46.5466 287.824" fill="#455A64"/>
<path d="M58.3828 379.107C58.7334 375.566 60.0067 372.178 62.0757 369.283C64.1448 366.387 66.9371 364.085 70.174 362.606C70.0513 366.361 68.8336 369.998 66.6707 373.069C64.5079 376.141 61.4942 378.513 58.0006 379.894" fill="#455A64"/>
<path d="M40.0384 255.957C40.0384 255.957 43.0733 267.298 46.6141 285.924L47.9629 293.241C48.4238 295.782 48.8172 298.446 49.2668 301.2C50.1998 306.685 50.9641 312.597 51.8184 318.802C53.3583 331.245 54.6959 344.959 55.5165 359.403C56.337 373.847 56.4494 387.639 56.2696 400.172C56.101 406.444 55.9886 412.401 55.6626 417.965C55.5052 420.742 55.4153 423.439 55.2355 426.013C55.0556 428.587 54.8645 431.072 54.6847 433.432C53.2009 452.338 51.425 463.927 51.425 463.927C51.425 463.927 51.425 463.747 51.425 463.388L51.6385 461.87C51.7959 460.454 52.0095 458.42 52.2905 455.8C52.4366 454.485 52.6052 453.024 52.7738 451.417C52.9424 449.809 53.0885 448.045 53.2572 446.201C53.5719 442.447 54.0215 438.187 54.3025 433.466C54.4599 431.09 54.6285 428.617 54.8083 426.047C54.9769 423.462 55.0556 420.775 55.1905 417.999C55.5052 412.435 55.5952 406.489 55.7525 400.228C55.8987 387.706 55.7525 373.925 54.9545 359.492C54.1564 345.06 52.8075 331.391 51.3013 318.926C50.4695 312.721 49.7277 306.82 48.8059 301.323C48.3676 298.581 47.9854 295.917 47.5358 293.365C47.0862 290.813 46.6478 288.386 46.2319 286.047C45.4338 281.383 44.5233 277.19 43.8039 273.503C43.4218 271.66 43.0733 269.94 42.7586 268.366C42.4439 266.793 42.0842 265.354 41.7919 264.061L40.488 258.104C40.3419 257.441 40.2407 256.98 40.1508 256.553C40.0609 256.125 40.0384 255.957 40.0384 255.957Z" fill="#263238"/>
<path d="M77.3004 282.934C77.2838 283.073 77.2498 283.208 77.1992 283.339C77.1093 283.62 76.9969 284.002 76.8396 284.463L75.4233 288.846L74.3779 292.016C74.0295 293.14 73.6473 294.444 73.2539 295.804C72.4558 298.536 71.4666 301.616 70.5674 305.089C70.1065 306.82 69.612 308.63 69.1061 310.518C68.6003 312.406 68.1619 314.385 67.6561 316.43C66.622 320.511 65.734 324.917 64.7561 329.548C62.9351 338.833 61.2603 349.106 60.0351 359.965C58.8099 370.823 58.2704 381.22 58.0231 390.685C58.0231 395.417 57.877 399.913 58.0231 404.117C58.0231 406.219 58.0231 408.254 58.1467 410.209C58.2704 412.165 58.3153 414.031 58.394 415.83C58.5064 419.415 58.8099 422.641 58.9898 425.474C59.1022 426.89 59.1921 428.217 59.282 429.43C59.3719 430.644 59.5181 431.746 59.608 432.803C59.7991 434.77 59.9452 436.31 60.0464 437.389C60.0464 437.895 60.1138 438.288 60.1475 438.591C60.1575 438.726 60.1575 438.861 60.1475 438.996C60.1094 438.864 60.0831 438.728 60.0688 438.591C60.0688 438.299 59.9789 437.906 59.9227 437.411C59.7878 436.287 59.608 434.792 59.3719 432.825L59.001 429.509C58.8886 428.295 58.7762 426.98 58.6525 425.564C58.439 422.72 58.113 419.494 57.9669 415.908C57.8769 414.121 57.7758 412.244 57.6859 410.288C57.5959 408.332 57.5735 406.298 57.5173 404.196C57.3824 399.981 57.5173 395.473 57.5173 390.707C57.7308 381.231 58.3153 370.812 59.4843 359.931C60.6533 349.05 62.4068 338.765 64.2615 329.469C65.2619 324.838 66.1611 320.477 67.2178 316.352C67.7348 314.306 68.1844 312.316 68.7015 310.428C69.2185 308.54 69.7244 306.741 70.2077 305.01C71.1294 301.548 72.1411 298.468 72.9729 295.748C73.4 294.388 73.8046 293.129 74.1643 291.96C74.524 290.791 74.9287 289.712 75.2884 288.813C75.9516 286.947 76.4124 285.441 76.8171 284.451C76.9969 283.979 77.1318 283.608 77.233 283.327C77.2399 283.194 77.2625 283.062 77.3004 282.934Z" fill="#263238"/>
<path d="M74.85 291.308C71.1632 288.206 70.9383 282.428 72.7481 277.966C74.5578 273.503 77.9636 269.918 80.8074 266.028C83.6513 262.139 86.068 257.486 85.416 252.72C85.1413 251.618 85.0614 250.477 85.18 249.348C85.416 248.223 86.5288 247.178 87.6191 247.515C88.7095 247.853 88.9792 248.954 89.1816 249.943C89.8116 253.022 90.0009 256.175 89.7436 259.307C90.481 257.484 91.6231 255.853 93.0836 254.536C94.5441 253.22 96.2847 252.253 98.1739 251.708C98.58 253.541 98.5169 255.446 97.9903 257.248C97.4636 259.05 96.4907 260.69 95.1615 262.016C97.6006 261.004 100.208 259.959 102.805 260.464C105.402 260.97 107.717 263.713 106.739 266.174C105.615 268.962 101.827 269.018 98.8708 269.547C95.563 270.15 92.5761 271.906 90.4405 274.504C87.7653 277.763 86.6974 282.023 84.528 285.643C82.3586 289.262 78.2109 292.387 74.2093 291.106" fill="#FF6347"/>
<path d="M43.2082 268.445C47.2885 265.905 48.3226 260.206 47.1536 255.541C45.9846 250.876 43.1295 246.841 40.859 242.592C38.5884 238.343 36.8461 233.397 38.1613 228.766C38.5964 227.693 38.8362 226.551 38.8694 225.394C38.7907 224.27 37.8465 223.056 36.7112 223.236C35.576 223.416 35.1601 224.472 34.8229 225.484C33.7656 228.44 33.1372 231.533 32.9569 234.668C32.4845 232.758 31.5829 230.98 30.3208 229.471C29.0588 227.961 27.4693 226.759 25.6731 225.956C25.0134 227.715 24.8087 229.612 25.0779 231.471C25.3471 233.33 26.0816 235.09 27.2131 236.59C24.965 235.241 22.4921 233.847 19.8618 233.982C17.2316 234.117 14.5451 236.511 15.1633 239.074C15.8602 241.996 19.6595 242.592 22.4809 243.57C25.6685 244.639 28.3783 246.796 30.1356 249.662C32.3162 253.259 32.7883 257.632 34.4182 261.521C36.0481 265.41 39.7237 269.108 43.8714 268.378" fill="#FF6347"/>
<path d="M38.3861 324.096C38.5555 324.321 38.6953 324.567 38.802 324.827L39.926 326.963C40.3981 327.896 40.9601 329.042 41.5559 330.402C42.1516 331.762 42.8935 333.28 43.5904 335.011C44.2873 336.742 45.0854 338.619 45.8385 340.687C46.5916 342.755 47.3672 344.959 48.1652 347.297C49.6715 351.995 51.144 357.233 52.3916 362.786C53.6393 368.339 54.4824 373.723 55.0893 378.624C55.3591 381.074 55.6401 383.412 55.775 385.604C55.9099 387.796 56.056 389.83 56.1347 391.696C56.2134 393.562 56.2246 395.248 56.2471 396.732C56.2696 398.216 56.2471 399.486 56.2471 400.531C56.2471 401.577 56.1347 402.296 56.1347 402.937C56.1347 403.577 56.1347 403.769 56.0673 403.769C56.0361 403.488 56.0361 403.206 56.0673 402.926C56.0673 402.33 56.0673 401.532 56.0673 400.531C56.0673 399.531 56.0673 398.216 55.9998 396.732C55.9324 395.248 55.9324 393.573 55.7975 391.719C55.6626 389.864 55.5839 387.818 55.3704 385.638C55.1568 383.457 54.9207 381.142 54.6397 378.691C53.999 373.813 53.111 368.462 51.9083 362.955C50.7056 357.447 49.1994 352.197 47.7269 347.499C46.9513 345.161 46.2319 342.935 45.4788 340.89C44.7257 338.844 43.995 336.933 43.2981 335.202C42.6012 333.471 41.938 331.931 41.3648 330.571C40.7915 329.211 40.2407 328.042 39.8248 327.098L38.8357 324.906C38.6604 324.651 38.5099 324.38 38.3861 324.096Z" fill="#263238"/>
<path d="M41.1737 334.921C43.2082 333.269 43.4218 330.121 42.4326 327.682C41.4435 325.243 39.6675 323.253 38.15 321.106C36.6325 318.96 35.3624 316.408 35.7558 313.823C35.9135 313.218 35.9667 312.591 35.9132 311.968C35.7895 311.35 35.1938 310.777 34.598 310.945C34.0023 311.114 33.8449 311.721 33.7213 312.26C33.3524 313.931 33.2237 315.645 33.3391 317.352C32.9579 316.355 32.3551 315.457 31.5762 314.727C30.7973 313.997 29.8627 313.453 28.8429 313.137C28.609 314.129 28.6284 315.163 28.8995 316.146C29.1706 317.128 29.6846 318.026 30.3941 318.757C29.1247 318.059 27.6803 317.743 26.2352 317.847C24.8301 318.094 23.5374 319.578 23.9871 320.915C24.5716 322.455 26.6398 322.511 28.2472 322.826C30.0415 323.194 31.6515 324.176 32.7996 325.603C34.2271 327.401 34.7779 329.728 35.9244 331.717C37.0709 333.707 39.2965 335.46 41.5446 334.786" fill="#FF6347"/>
</svg>
