<svg width="24" height="24" viewBox="0 0 24 24" fill="none" xmlns="http://www.w3.org/2000/svg">
<g clip-path="url(#clip0_273_804)">
<path d="M7.47306 12.4453L10.6451 9.24585L4.50159 3C3.60893 3.90037 3.16382 4.97341 3.16382 6.22406C3.16382 7.47472 3.60893 8.54776 4.50159 9.44813L7.4755 12.4477L7.47306 12.4453Z" fill="#FF6347"/>
<path d="M21 19.5914L14.0764 12.608L13.4796 12.0061L13.8905 11.5843C14.3527 12.048 15.1793 11.9715 15.7394 11.4116L20.8361 6.32018C20.978 6.17957 20.9976 5.9699 20.8826 5.85396L20.6747 5.64182C20.5598 5.52341 20.3519 5.54315 20.2125 5.68375L16.6467 9.24823L16.0207 8.6118L19.5864 5.04733C19.7283 4.90672 19.7478 4.69705 19.6329 4.58111L19.425 4.36897C19.3101 4.25056 19.1022 4.2703 18.9628 4.4109L15.397 7.97538L14.7709 7.33895L18.3318 3.77201C18.4736 3.6314 18.4932 3.42173 18.3783 3.30579L18.1704 3.09365C18.0554 2.97524 17.8476 2.99498 17.7082 3.13558L12.6114 8.22699C12.0489 8.78941 11.9658 9.62565 12.428 10.0943L3 19.5124L4.46005 20.9999L12.0514 13.4146L12.0807 13.4442L12.3546 13.718L19.6109 20.99L20.9976 19.5914H21Z" fill="#FF6347"/>
</g>
<defs>
<clipPath id="clip0_273_804">
<rect width="18" height="18" fill="white" transform="translate(3 3)"/>
</clipPath>
</defs>
</svg>
